<svg width="94" height="109" viewBox="0 0 94 109" fill="none" xmlns="http://www.w3.org/2000/svg">
<path d="M90.4369 55.3749C90.7936 64.7231 89.7762 74.0184 89.3072 83.3269C88.9768 89.451 89.3072 95.4101 90.9918 101.316C91.7053 103.82 91.5732 103.959 89.0099 104.117C76.5721 105.064 64.1321 105.983 51.69 106.872C42.0974 107.533 32.5312 108.194 22.9188 108.947C21.3135 109.066 20.5075 108.914 20.2763 106.932C19.7808 102.202 19.6156 102.215 14.8061 102.558C12.7185 102.704 10.6308 102.842 8.54978 103.047C7.58524 103.146 7.26152 102.875 7.18225 101.845C6.2111 89.4775 5.20031 77.1234 4.17631 64.7627C2.85501 48.0219 1.53372 31.2746 0.159578 14.5536C-0.21699 9.98853 -0.289661 9.98853 4.22255 9.63839C7.63149 9.37413 11.0338 9.07024 14.4427 8.91168C16.0283 8.83901 16.9136 8.43602 16.788 6.63906C16.7945 5.59214 16.8829 4.54734 17.0523 3.5142C17.3562 -0.066499 17.3496 -0.0863183 21.0162 0.032598C42.0644 0.71967 63.1037 1.40674 84.1343 2.09381C85.7331 2.14667 86.288 2.45056 86.0436 4.19467C85.634 7.13454 85.7661 7.14776 88.6267 7.22043C93.4626 7.33274 93.5089 7.33934 93.2512 12.0828C92.8614 18.9667 92.399 25.8506 91.9299 32.7346H91.1173C91.5269 24.7804 91.9343 16.824 92.3395 8.86544C92.4254 8.61439 92.3395 8.46244 92.0687 8.47565C90.8927 8.38977 89.7168 8.27746 88.5408 8.23122C85.5943 8.1123 85.6274 8.12551 85.4093 11.1843C84.9006 18.4514 84.3986 25.7714 83.8172 33.0583C83.4604 37.4714 83.1565 41.8845 82.628 46.2712C82.3109 49.0922 81.7956 51.9858 82.0533 54.8596H81.2737C81.6304 49.8123 81.974 44.7583 82.3506 39.711C83.1654 28.8764 83.9868 18.0396 84.8148 7.20061C85.1385 3.06496 85.1781 3.16406 80.9962 2.94605C61.0513 1.96168 41.047 1.90883 21.0756 0.990535C18.1688 0.858406 18.182 0.898045 18.0036 3.69918C17.9111 5.22528 17.7724 6.75137 17.6601 8.28407C16.6031 22.2457 15.5438 36.2074 14.4824 50.169C13.5046 62.9415 12.5071 75.714 11.4897 88.4865C11.3906 89.7483 11.8464 89.9994 12.9761 90.0192C16.2793 90.0919 19.5231 90.3297 22.7933 90.3892C40.5603 90.7063 58.3185 91.2436 76.0678 92.0011C78.0498 92.0936 78.9086 91.5981 78.7699 89.6228H79.5296C79.6848 90.6207 79.5731 91.6418 79.2059 92.5825L78.7104 92.8798C77.3891 92.8798 76.0678 92.926 74.7465 92.8798C57.9661 92.1465 41.1791 91.7105 24.3855 91.3801C20.3225 91.3009 20.3621 91.3141 20.0913 95.344C20.012 96.5926 20.1838 97.141 21.6372 97.326C26.5458 97.9866 31.4874 98.2509 36.4026 98.7463C36.9576 98.7992 37.7239 98.4689 38.0014 99.2286C37.9089 99.7835 37.5125 99.7241 37.1822 99.7043C31.4754 99.4291 25.7864 98.8624 20.1375 98.0064C19.0871 97.828 18.9616 97.2269 19.0342 96.3812C19.1399 95.0599 19.1796 93.7386 19.3646 92.4173C19.4967 91.4858 19.1796 91.1753 18.2877 91.1489C16.2661 91.1027 14.2446 90.8979 12.2296 90.9507C10.6969 90.9903 10.3203 90.4024 10.5185 88.9688C10.7431 87.3832 10.8158 85.7779 10.9347 84.1791C12.1459 68.2179 13.3439 52.2457 14.5286 36.2624C15.1496 27.9977 15.731 19.7463 16.3718 11.4618C16.4643 10.2594 16.2859 9.6516 14.859 9.79695C10.6969 10.1999 6.52821 10.5303 2.35953 10.8209C1.29589 10.9002 0.912715 11.2372 1.03824 12.3404C1.24304 14.2101 1.27607 16.0929 1.42802 17.9691C2.64801 33.2521 3.8636 48.5328 5.07479 63.8114C6.05915 76.106 7.05672 88.394 8.03448 100.689C8.12036 101.772 8.43747 102.116 9.56057 102.01C12.4014 101.713 15.2487 101.521 18.1027 101.349C18.9351 101.296 19.6883 101.244 20.3027 100.332C20.6814 102.767 21.0536 105.207 21.4192 107.652C21.4192 107.929 21.5051 108.048 21.7891 107.969C27.1338 107.586 32.4784 107.216 37.823 106.826C54.2863 105.624 70.7452 104.423 87.1997 103.226C90.417 102.988 90.417 102.915 89.5846 99.7902C89.4921 99.4334 89.6705 98.8256 89.1024 98.8058C88.3889 98.8058 88.5276 99.4664 88.4747 99.8959C88.4549 100.241 88.4549 100.588 88.4747 100.933L88.3492 101.376C81.6569 101.244 74.9711 101.131 68.2788 100.993C58.8712 100.794 49.4702 100.49 40.0758 99.8959C39.4152 99.8496 38.596 100.021 37.8296 99.0238C40.2608 98.6737 42.355 99.1824 44.4361 99.2418C56.9091 99.5854 69.3799 99.9575 81.8485 100.358C87.6423 100.557 87.5895 100.616 87.8736 94.7098C88.7192 76.8944 89.6001 59.0811 90.5161 41.2701C90.6549 38.5615 90.9125 35.8528 91.1107 33.1508H91.9431C91.6128 39.8497 91.2847 46.5465 90.9588 53.241C90.9782 53.4476 90.9404 53.6554 90.8495 53.8419C90.7586 54.0283 90.6181 54.1862 90.4435 54.2981L90.4369 55.3749Z" fill="#404A53"/>
<path d="M90.437 55.3747V54.311C91.1637 54.6744 90.5031 55.0179 90.437 55.3747Z" fill="#465058"/>
<path d="M91.1637 32.748H91.9763C91.9763 32.8934 91.9763 33.0321 91.9763 33.1775H91.1439L91.1637 32.748Z" fill="#465058"/>
<path d="M78.7699 89.6491C78.9087 91.631 78.063 92.1199 76.0679 92.0274C58.3229 91.2391 40.5648 90.7017 22.7934 90.4154C19.5232 90.356 16.253 90.1182 12.9762 90.0455C11.8465 90.0455 11.3907 89.7746 11.4898 88.5128C12.5204 75.7403 13.5179 62.9678 14.4825 50.1953C15.5527 36.2381 16.612 22.2764 17.6602 8.31035C17.7725 6.77766 17.9112 5.25156 18.0037 3.72547C18.1821 0.924332 18.1689 0.884693 21.0757 1.01682C41.0471 1.93512 61.0514 1.98797 81.0227 2.99876C85.2046 3.21677 85.165 3.11768 84.8413 7.25332C83.9957 18.0879 83.1742 28.9247 82.3771 39.7637C82.0005 44.811 81.657 49.865 81.3002 54.9123C81.0426 57.9579 80.7453 61.0035 80.5273 64.0557C79.9327 72.5846 79.3579 81.1135 78.7699 89.6491ZM70.7497 29.3057C71.7341 29.3057 72.7911 29.7813 73.9274 28.8697C72.9052 28.5265 71.8165 28.4291 70.7497 28.5856C66.918 28.5856 63.073 27.8721 59.2412 28.3345C59.2412 28.6583 59.2412 28.9952 59.2412 29.3057H70.7497ZM30.4503 82.1574C36.4952 82.1574 41.2452 77.6848 41.2849 72.0297C41.3179 66.6388 36.6141 62.0803 31.0449 62.0803C29.6484 62.0672 28.2633 62.331 26.9693 62.8563C25.6754 63.3817 24.4984 64.1582 23.5064 65.1411C22.5143 66.1239 21.7268 67.2936 21.1894 68.5826C20.652 69.8715 20.3754 71.2542 20.3754 72.6507C20.3887 77.9755 24.848 82.1838 30.4503 82.164V82.1574ZM52.5291 14.6922C52.0336 13.8532 51.5249 13.0274 51.0691 12.1883C50.8312 11.7457 50.6066 11.3625 50.012 11.3361C47.6139 11.2502 45.2223 11.1313 42.8242 11.0256C42.3485 11.0256 41.6945 10.8604 41.6681 11.5343C41.6416 12.2082 42.3287 12.195 42.7647 12.1355C44.4296 11.9043 44.5419 12.7961 44.3899 14.1174C44.2182 15.6303 44.1587 17.163 44.0662 18.6891C44.0662 19.0855 43.9275 19.6008 44.5088 19.6669C45.0902 19.7329 45.1695 19.2639 45.1695 18.8344C45.3413 17.1036 45.4998 15.3727 45.6716 13.6484C45.7244 13.0604 45.5923 12.1091 46.4974 12.3271C47.5808 12.5979 48.8163 11.1776 49.576 12.3998C50.7387 14.276 52.4828 16.0531 51.6438 18.6561C51.5183 19.0459 51.3135 19.7197 52.06 19.8254C53.0047 19.9575 52.7933 19.1648 52.7867 18.6825C52.7934 17.0714 53.4149 15.5236 54.5242 14.3553C55.2311 13.5427 55.8455 12.6178 56.559 11.5938C55.3699 11.6532 55.3699 11.6532 52.5291 14.6922ZM54.0618 59.8738V59.5567C48.7766 59.5567 43.4914 59.5567 38.2063 59.5567C37.6447 59.5567 36.6273 59.1999 36.6075 59.9531C36.5745 60.9969 37.6712 60.5014 38.2459 60.5212C48.9484 60.9837 59.6641 60.6732 70.3731 60.8383C70.8422 60.8383 71.6944 61.1488 71.6944 60.356C71.6944 59.5633 70.8224 59.8738 70.3731 59.8738C64.9162 59.8672 59.4857 59.8738 54.0618 59.8738ZM43.7755 75.2206C43.9618 75.3912 44.1858 75.5154 44.4292 75.5831C44.6725 75.6508 44.9284 75.6602 45.1761 75.6104C53.3153 75.6852 61.4632 75.7469 69.62 75.7953C70.0494 75.7953 70.8092 76.0464 70.8026 75.3659C70.8026 74.5137 69.9503 74.8704 69.4813 74.8704C61.3421 74.8264 53.1941 74.8 45.0374 74.7912C44.8078 74.7445 44.57 74.7596 44.3483 74.8351C44.1266 74.9106 43.9289 75.0436 43.7755 75.2206ZM24.8877 42.9943V43.8729C34.7973 44.1504 44.707 44.8309 54.6696 44.5996V43.939L24.8877 42.9943ZM24.5309 14.9631C24.2006 19.3167 24.3657 19.4819 28.3759 18.9269C30.7674 18.5834 32.0887 16.793 31.9301 14.1174C31.7716 11.5541 30.2455 10.5764 26.645 10.4376C23.5796 10.3253 25.1387 12.7037 24.6102 13.9457C24.5312 14.2786 24.5045 14.6219 24.5309 14.9631ZM55.1518 36.4274C55.1518 36.1962 55.1518 35.965 55.1518 35.7338L25.621 34.9938V35.747C35.4514 36.1236 45.2884 36.6851 55.1518 36.4274ZM58.4551 28.5393C47.6667 28.0769 36.9048 27.4823 26.1363 27.6541V28.5393H58.4551ZM34.7445 14.2364H34.8172C34.8172 13.47 34.8172 12.7037 34.8172 11.9373C34.8172 11.4947 35.0484 10.8604 34.2556 10.8737C33.7271 10.8737 33.6412 11.3559 33.595 11.7854C33.4893 13.2454 33.3043 14.7054 33.2977 16.1654C33.2977 18.2993 34.1829 19.244 36.2442 19.4687C38.3054 19.6933 39.7852 18.808 40.1222 16.8591C40.334 15.2724 40.4663 13.676 40.5185 12.076C40.5185 11.6004 40.6639 11.019 39.9041 11.0256C39.1444 11.0322 39.3029 11.6863 39.2435 12.1025C39.0915 13.5559 39.0123 15.0225 38.8207 16.4693C38.8037 16.7509 38.7282 17.0258 38.599 17.2766C38.4698 17.5273 38.2897 17.7483 38.0702 17.9255C37.8508 18.1027 37.5967 18.2322 37.3244 18.3056C37.0521 18.3791 36.7674 18.3949 36.4886 18.3522C35.1145 18.2927 34.5067 17.4867 34.5925 16.139C34.6586 15.485 34.7049 14.864 34.7445 14.2364ZM43.7689 67.8015V68.2045H71.232V67.8015H43.7689ZM50.5471 52.8313C41.7539 52.904 33.0202 51.4175 24.2138 51.9857C32.9806 52.6001 41.7473 53.34 50.5471 52.8313ZM72.0842 52.8313C68.243 52.1434 64.3147 52.0921 60.4568 52.6793C64.3077 53.2583 68.2195 53.3095 72.0842 52.8313ZM65.9402 35.9716C65.9402 36.1566 65.9402 36.3416 65.9402 36.5265L73.3791 36.8635V36.0773C70.9085 35.8095 68.4187 35.7652 65.9402 35.9452V35.9716ZM65.4579 44.2297V44.8177C67.9155 44.8177 70.3731 45.181 72.8307 44.8177C72.8307 44.6195 72.8307 44.4213 72.8307 44.2297H65.4579Z" fill="#FAFBFB"/>
<path d="M91.1637 32.7475L91.1307 33.1505C90.9325 35.8525 90.6748 38.5611 90.5361 41.2698C89.6552 59.0808 88.7744 76.894 87.8935 94.7095C87.6094 100.616 87.6623 100.556 81.8684 100.358C69.3998 99.944 56.929 99.5718 44.456 99.2415C42.3684 99.182 40.2741 98.6733 37.8496 99.0235C38.6159 100.021 39.4153 99.8493 40.0958 99.8955C49.4901 100.49 58.8911 100.794 68.2987 100.992C74.9911 101.131 81.6768 101.243 88.3692 101.375L88.8977 101.223L88.4947 100.933C88.4749 100.587 88.4749 100.241 88.4947 99.8955C88.5475 99.4463 88.4088 98.7856 89.1223 98.8055C89.6905 98.8055 89.5121 99.4331 89.6046 99.7898C90.437 102.915 90.437 102.987 87.2196 103.225C70.7563 104.423 54.2908 105.619 37.8231 106.812C32.4785 107.202 27.1339 107.572 21.7893 107.955L21.4193 107.638C21.0493 105.203 20.6772 102.763 20.3028 100.318C19.6884 101.23 18.9353 101.283 18.1028 101.336C15.2489 101.508 12.4015 101.699 9.5607 101.996C8.4376 102.115 8.12049 101.772 8.0346 100.675C7.07006 88.3805 6.05266 76.0925 5.07491 63.7978C3.85932 48.5237 2.65254 33.2474 1.45457 17.9688C1.30262 16.0926 1.26959 14.2097 1.06479 12.3401C0.939264 11.2368 1.32244 10.8999 2.38608 10.8206C6.55476 10.5299 10.7234 10.1996 14.8855 9.79662C16.3125 9.65128 16.4909 10.2591 16.3984 11.4614C15.7377 19.7261 15.1762 27.9776 14.5552 36.2621C13.3616 52.2409 12.1548 68.222 10.9348 84.2052C10.8159 85.8039 10.7433 87.4093 10.5186 88.9949C10.3204 90.4087 10.697 90.9768 12.2297 90.9768C14.2447 90.924 16.2663 91.1288 18.2878 91.175C19.1797 91.175 19.4968 91.5119 19.3647 92.4435C19.1797 93.7647 19.1401 95.086 19.0344 96.4073C18.9617 97.253 19.0872 97.8541 20.1376 98.0325C25.7864 98.8907 31.4754 99.4596 37.1823 99.737C37.5126 99.737 37.909 99.8163 38.0015 99.2613C37.6976 98.5016 36.9577 98.8319 36.4027 98.779C31.4875 98.2836 26.5459 97.9863 21.6373 97.3587C20.1839 97.1737 20.0121 96.6253 20.0914 95.3767C20.3623 91.3534 20.3226 91.3402 24.3856 91.4128C41.1792 91.7432 57.9662 92.1792 74.7466 92.9125C76.0679 92.972 77.3892 92.9125 78.7105 92.9125C78.988 92.9984 79.1598 92.9125 79.206 92.6152C79.5732 91.6745 79.6849 90.6534 79.5297 89.6555C80.6462 78.1008 81.4522 66.5329 82.0798 54.932C81.8222 52.0317 82.3375 49.1381 82.6546 46.3436C83.1633 41.937 83.487 37.5239 83.8437 33.1306C84.4251 25.8635 84.9272 18.5502 85.4359 11.2566C85.6539 8.19785 85.6209 8.18464 88.5674 8.30356C89.7433 8.3498 90.9193 8.46211 92.0952 8.548L92.3661 8.93778C91.9565 16.8523 91.5557 24.7889 91.1637 32.7475Z" fill="#FAFBFB"/>
<path d="M82.0797 54.9195C81.4191 66.5072 80.6461 78.0883 79.5296 89.643H78.7699C79.3579 81.1075 79.926 72.5785 80.5272 64.0496C80.7452 60.9974 81.0425 57.9518 81.3002 54.9062L82.0797 54.9195Z" fill="#465058"/>
<path d="M88.521 100.933L88.924 101.224L88.3955 101.376L88.521 100.933Z" fill="#F4F5F6"/>
<path d="M79.2061 92.6025C79.1598 92.8998 78.988 92.9857 78.7106 92.8998L79.2061 92.6025Z" fill="#465058"/>
<path d="M92.3661 8.87886L92.0952 8.48908C92.3859 8.47587 92.485 8.62781 92.3661 8.87886Z" fill="#F4F5F6"/>
<path d="M21.4193 107.665L21.7893 107.982C21.5052 108.035 21.3995 107.916 21.4193 107.665Z" fill="#F4F5F6"/>
<path d="M30.4502 82.1643C24.848 82.1643 20.3886 77.9758 20.3622 72.651C20.3621 71.2534 20.6392 69.8696 21.1774 68.5798C21.7156 67.29 22.5043 66.1197 23.4978 65.1367C24.4912 64.1536 25.6698 63.3774 26.9652 62.8528C28.2607 62.3283 29.6473 62.0658 31.0448 62.0807C36.6273 62.0807 41.3311 66.6259 41.2981 71.9904C41.2452 77.6917 36.4952 82.1379 30.4502 82.1643ZM21.373 72.3273C21.3333 77.2029 25.4426 81.1932 30.5493 81.2196C35.7618 81.2196 40.2608 77.0179 40.3203 72.0234C40.3864 67.3394 35.9732 63.0122 31.1241 63.0122C26.0768 63.0056 21.4192 67.4583 21.373 72.3273Z" fill="#404A53"/>
<path d="M52.5292 14.6922C55.3699 11.6532 55.3699 11.6532 56.5855 11.6003C55.839 12.6243 55.2642 13.5492 54.5507 14.3618C53.4534 15.5353 52.844 17.0825 52.8463 18.6891C52.8463 19.1581 53.0643 19.9641 52.1196 19.832C51.373 19.7263 51.5778 19.0524 51.7034 18.6626C52.5424 16.0597 50.7983 14.2826 49.6355 12.4063C48.8758 11.1841 47.6536 12.6045 46.5569 12.3336C45.6518 12.1024 45.784 13.0538 45.7311 13.6549C45.5594 15.3792 45.4008 17.1101 45.229 18.841C45.1894 19.2704 45.0969 19.7329 44.5684 19.6734C44.0399 19.614 44.0993 19.0921 44.1257 18.6957C44.2182 17.1696 44.2777 15.6369 44.4495 14.124C44.6014 12.8027 44.4891 11.9174 42.8243 12.1421C42.375 12.2015 41.6946 12.2015 41.7276 11.5409C41.7606 10.8802 42.3882 11.0124 42.8837 11.0322C45.2819 11.1379 47.6734 11.2568 50.0716 11.3427C50.6661 11.3427 50.8908 11.7523 51.1286 12.1949C51.525 13.0273 52.0337 13.8531 52.5292 14.6922Z" fill="#465058"/>
<path d="M54.0618 59.8741C59.4857 59.8741 64.9162 59.8741 70.3401 59.8741C70.8224 59.8741 71.6614 59.5636 71.6614 60.3564C71.6614 61.1491 70.8091 60.8453 70.3401 60.8386C59.631 60.6735 48.9153 60.984 38.2129 60.5215C37.6381 60.5215 36.5414 60.9972 36.5745 59.9534C36.5745 59.2002 37.6117 59.5636 38.1732 59.557C43.4584 59.557 48.7436 59.557 54.0287 59.557L54.0618 59.8741Z" fill="#404A53"/>
<path d="M43.7755 75.2211C43.9289 75.0441 44.1266 74.911 44.3483 74.8356C44.57 74.7601 44.8078 74.745 45.0373 74.7916C53.1765 74.7916 61.3245 74.8181 69.4813 74.8709C69.9437 74.8709 70.8025 74.5142 70.8025 75.3664C70.8025 76.0271 70.0494 75.7958 69.62 75.7958C61.4808 75.7474 53.3439 75.6857 45.2091 75.6109C44.9564 75.6662 44.6941 75.6596 44.4445 75.5918C44.1949 75.5239 43.9654 75.3967 43.7755 75.2211Z" fill="#465058"/>
<path d="M24.8877 42.9946L54.663 43.9526V44.6132C44.7533 44.8444 34.8436 44.164 24.8811 43.8865L24.8877 42.9946Z" fill="#404A53"/>
<path d="M24.5309 14.9631C24.5088 14.6143 24.5423 14.2643 24.63 13.9259C25.1585 12.6839 23.5993 10.3056 26.6647 10.4179C30.2454 10.5566 31.7715 11.5344 31.9499 14.0977C32.1085 16.7733 30.7872 18.5637 28.3956 18.9072C24.3657 19.482 24.2005 19.3168 24.5309 14.9631ZM26.9158 17.8634C29.4989 17.7973 31.0779 15.8814 30.4767 13.5692C30.0142 11.792 28.5872 11.5212 27.0611 11.4882C25.3236 11.4551 26.1362 12.8094 25.9645 13.622C25.7597 14.5668 25.8125 15.5577 25.6407 16.5091C25.4293 17.7048 25.9645 18.0087 26.9158 17.8634Z" fill="#404A53"/>
<path d="M55.1518 36.4276C45.2883 36.6852 35.4513 36.1237 25.6011 35.7141V34.9609L55.1452 35.7339C55.1584 35.9651 55.1584 36.1963 55.1518 36.4276Z" fill="#404A53"/>
<path d="M58.4352 28.5391H26.1031V27.6538C36.8849 27.4821 47.6468 28.0766 58.4352 28.5391Z" fill="#404A53"/>
<path d="M34.7443 14.2368C34.7047 14.8974 34.6585 15.4854 34.6188 16.113C34.5395 17.4343 35.1407 18.2667 36.5149 18.3262C36.7937 18.3689 37.0783 18.3531 37.3507 18.2796C37.623 18.2062 37.877 18.0767 38.0965 17.8995C38.316 17.7223 38.4961 17.5013 38.6253 17.2506C38.7545 16.9998 38.83 16.7249 38.847 16.4433C39.0385 14.9965 39.1178 13.5299 39.2698 12.0765C39.316 11.6338 39.1575 11.0062 39.9304 10.9996C40.7034 10.993 40.5911 11.5744 40.5448 12.05C40.4926 13.65 40.3603 15.2464 40.1484 16.8331C39.8115 18.782 38.3977 19.6409 36.2704 19.4427C34.1432 19.2445 33.3041 18.2997 33.324 16.1394C33.324 14.6794 33.5155 13.2194 33.6212 11.7593C33.6212 11.3299 33.7402 10.8609 34.2819 10.8477C35.0747 10.8477 34.8368 11.4687 34.8434 11.9113C34.8434 12.6776 34.8434 13.444 34.8434 14.2103L34.7443 14.2368Z" fill="#465058"/>
<path d="M43.7688 67.8018H71.2385V68.2047H43.7622L43.7688 67.8018Z" fill="#404A53"/>
<path d="M50.5471 52.8313C41.7473 53.373 32.9805 52.6331 24.2137 51.9857C33.0268 51.3845 41.7539 52.8709 50.5471 52.8313Z" fill="#404A53"/>
<path d="M72.0842 52.8316C68.2195 53.3098 64.3076 53.2587 60.4568 52.6797C64.3147 52.0924 68.2429 52.1437 72.0842 52.8316Z" fill="#404A53"/>
<path d="M65.9403 35.945C68.4224 35.7555 70.9166 35.7909 73.3924 36.0507V36.8369L65.9535 36.4999C65.9337 36.315 65.9403 36.13 65.9403 35.945Z" fill="#404A53"/>
<path d="M70.7498 29.3056H59.2347C59.2347 28.9819 59.2347 28.645 59.2347 28.3345C63.0665 27.872 66.9114 28.5723 70.7432 28.5855L70.7498 29.3056Z" fill="#404A53"/>
<path d="M65.458 44.2036H72.8705C72.8705 44.3952 72.8705 44.5934 72.8705 44.7916C70.4129 45.1549 67.9553 44.7916 65.4977 44.7916L65.458 44.2036Z" fill="#404A53"/>
<path d="M70.7498 29.3059V28.5858C71.8166 28.4293 72.9053 28.5266 73.9275 28.8698C72.7912 29.7815 71.7341 29.3125 70.7498 29.3059Z" fill="#465058"/>
<path d="M21.373 72.3268C21.4192 67.4579 26.0768 63.0051 31.1241 63.0117C35.9732 63.0117 40.3731 67.339 40.3203 72.0229C40.2608 77.0174 35.7618 81.272 30.5493 81.2191C25.4425 81.1927 21.3333 77.2024 21.373 72.3268ZM30.2322 78.9333C31.0316 77.8432 31.2827 76.7135 32.5379 76.6607C32.8286 76.6607 33.1325 76.3171 33.3703 76.0727C34.6916 74.7514 34.3877 73.0139 32.4718 71.9965C31.1043 71.2632 31.21 70.1996 31.5007 69.1888C31.8904 67.8146 32.6039 68.9641 33.1919 69.1888C33.2558 69.2221 33.3268 69.2398 33.3988 69.2404C33.4709 69.241 33.5421 69.2246 33.6066 69.1923C33.6711 69.1601 33.727 69.113 33.7698 69.055C33.8125 68.9969 33.8409 68.9296 33.8526 68.8584C33.9133 68.6534 33.8922 68.4328 33.7936 68.2431C33.6951 68.0533 33.5267 67.9092 33.3241 67.841C32.8601 67.69 32.4443 67.4193 32.1183 67.0563C31.7924 66.6932 31.568 66.2507 31.4676 65.7732C30.622 66.0375 30.8995 66.8699 30.2587 67.2465C26.9554 69.2284 26.8761 70.0542 29.8424 72.2938C30.9854 73.1592 30.3247 74.0842 30.1662 74.9364C29.9415 76.0859 29.0827 75.3988 28.5212 75.2139C27.9596 75.0289 27.5963 74.6787 27.3188 75.346C27.0413 76.0132 27.6227 76.2445 28.0653 76.37C29.228 76.6541 30.2058 77.1495 30.2322 78.9201V78.9333Z" fill="#F8F8F9"/>
<path d="M26.9159 17.8631C25.9646 18.0085 25.4294 17.7046 25.6409 16.5088C25.8126 15.5575 25.7598 14.5665 25.9646 13.6218C26.1363 12.8422 25.3039 11.4549 27.0612 11.4879C28.5873 11.4879 30.0143 11.7918 30.4768 13.5689C31.078 15.8349 29.499 17.8169 26.9159 17.8631Z" fill="#F4F5F6"/>
<path d="M30.2323 78.9202C30.2323 77.1496 29.2281 76.6542 28.0456 76.3106C27.6029 76.1851 27.0414 75.9208 27.299 75.2866C27.5567 74.6524 28.0324 75.0026 28.5014 75.1545C28.9705 75.3064 29.9218 76.0266 30.1464 74.877C30.305 74.038 30.9656 73.1131 29.8227 72.2344C26.8564 69.9949 26.9357 69.136 30.2389 67.1871C30.8996 66.8105 30.6023 65.9781 31.4479 65.7139C31.5482 66.1913 31.7727 66.6339 32.0986 66.9969C32.4245 67.36 32.8404 67.6306 33.3043 67.7817C33.507 67.8499 33.6753 67.994 33.7739 68.1837C33.8725 68.3735 33.8936 68.5941 33.8328 68.7991C33.8212 68.8702 33.7928 68.9376 33.75 68.9956C33.7073 69.0537 33.6513 69.1007 33.5869 69.133C33.5224 69.1652 33.4512 69.1817 33.3791 69.1811C33.307 69.1805 33.2361 69.1627 33.1722 69.1294C32.5842 68.9378 31.8509 67.8081 31.4809 69.1294C31.1902 70.1402 31.0845 71.2038 32.4521 71.9372C34.368 72.9545 34.6454 74.6788 33.3506 76.0133C33.1127 76.2578 32.8088 76.5881 32.5181 76.6013C31.2827 76.7004 31.0449 77.8301 30.2323 78.9202ZM30.9854 73.047C31.2563 73.9521 30.3248 75.029 31.5007 75.6037C31.8377 75.7755 32.4521 75.3461 32.5578 74.8242C32.789 73.7011 32.1812 73.2056 30.9854 73.047ZM30.5891 70.8471C30.4834 69.9354 31.1044 69.0039 30.1332 68.4357C29.8557 68.2706 29.3933 68.7661 29.2678 69.1624C28.9308 70.2195 29.5386 70.6093 30.5891 70.8471Z" fill="#404A53"/>
<path d="M30.9855 73.0474C32.1812 73.2059 32.789 73.708 32.5578 74.8245C32.4521 75.3464 31.8377 75.7758 31.5008 75.6041C30.3446 75.0029 31.2563 73.9723 30.9855 73.0474Z" fill="#F4F5F6"/>
<path d="M30.5889 70.8473C29.5385 70.6095 28.9307 70.1867 29.2676 69.1627C29.3932 68.7663 29.8556 68.2708 30.1331 68.436C31.1042 69.0041 30.4832 69.9356 30.5889 70.8473Z" fill="#F4F5F6"/>
</svg>
