<svg width="129" height="92" viewBox="0 0 129 92" fill="none" xmlns="http://www.w3.org/2000/svg">
<path d="M106.635 73.7391C106.279 73.4245 105.859 73.1901 105.404 73.0518C104.95 72.9135 104.47 72.8744 103.999 72.9373C95.0329 72.9373 86.0665 72.993 77.1001 72.9373C75.3988 72.9373 75.0084 73.3905 75.1757 75.029C75.3924 77.5897 76.0113 80.1003 77.0094 82.4685C77.7067 84.0581 78.6479 85.0901 80.6281 85.0482C82.8313 84.9994 84.6651 85.8919 85.3902 88.2067C86.178 90.7028 85.188 92.0066 82.5524 91.9996L46.1777 91.9299C45.0761 91.9299 43.9745 91.9299 42.8729 91.9299C40.2025 91.8881 39.2891 90.7098 39.9863 88.116C40.5859 85.9128 42.2523 85.0134 44.3649 84.6299C45.5642 84.4277 46.8959 84.7902 47.9487 83.8629H48.8481C48.9527 85.1807 49.9707 84.5602 50.5285 84.5602C54.928 84.6647 59.3345 84.6926 63.7759 84.7205C68.2173 84.7484 72.5262 84.7205 77.0652 84.7205C75.5633 82.2457 74.6586 79.4551 74.4227 76.5699C74.3181 75.2242 73.5233 75.3567 72.6099 75.3567C66.7392 75.3567 60.8615 75.28 54.9908 75.2521C51.6022 75.2521 51.6092 75.2521 50.9817 78.6616C50.8632 79.303 50.6261 79.9236 50.4448 80.558L49.7894 80.1536C50.0335 77.7412 50.2845 75.3288 50.5285 72.9164C51.4558 73.258 51.3442 74.6734 52.9549 74.5827C57.4938 74.3178 62.0189 74.4782 66.6067 74.4782H72.9934C73.4744 74.4782 74.1229 74.6873 74.1787 73.9134C74.2344 73.1395 73.6139 73.007 73.0003 72.9861C72.3868 72.9652 71.9684 72.9861 71.4594 72.9861H50.5424L24.1103 72.8466V72.1494C24.5496 72.1494 24.9888 72.0657 25.4281 72.0657C48.9527 72.0657 72.4774 72.0866 96.0021 72.1285C98.9374 72.1285 101.873 72.0309 104.808 71.9821C104.839 71.9341 104.855 71.8785 104.855 71.8217C104.855 71.7649 104.839 71.7093 104.808 71.6613C103.358 69.0258 100.039 68.6214 98.3587 66.2717C97.6127 65.2398 96.8527 65.1561 95.772 65.8464C93.239 67.3532 90.4024 68.2773 87.4679 68.5517C87.0426 66.9411 88.4929 67.4849 89.0367 67.3664C98.0659 65.4281 106.37 57.389 105.38 45.6615C105.024 40.8046 102.921 36.2409 99.4602 32.8147C95.9994 29.3885 91.4148 27.3316 86.5546 27.0244C77.2535 26.376 67.799 33.6272 65.9792 42.9562C64.4034 51.0372 67.0808 57.7097 73.1119 63.1411L72.4704 63.7059C71.822 63.6432 71.1736 63.5176 70.5252 63.5107C51.1049 63.5107 31.6892 63.5107 12.2782 63.5107C11.581 63.5107 10.6328 63.9011 10.061 62.5973H70.9295C70.1486 61.656 69.6676 61.0285 69.1377 60.4428C67.6386 58.8139 66.4764 56.9048 65.7178 54.8251C64.9592 52.7455 64.6191 50.5364 64.7172 48.3249C64.8427 45.3198 62.751 44.6226 61.0707 43.6325C59.8156 42.8726 59.0278 44.6017 58.0935 45.278C56.6153 46.3378 55.437 47.8229 53.5266 48.6108C53.5684 48.1227 53.5266 47.9135 53.5963 47.8508C54.9559 46.6167 56.3016 45.3756 57.6891 44.1764C60.5129 41.75 60.5129 41.7639 63.3018 44.0509C63.6783 44.3577 63.9642 44.8527 64.6266 44.8457C64.7451 44.2182 64.8566 43.5907 64.9821 42.9632C67.6804 29.4578 82.6919 22.0462 94.9632 28.3213C96.8457 29.2765 98.4982 30.6222 100.255 28.2794H100.22C100.215 28.7775 100.062 29.2628 99.7811 29.6739C98.9235 30.5803 99.2791 31.1869 100.13 31.9957C106.6 38.1802 108.315 48.813 104.257 56.9636C102.863 59.7526 104.613 62.43 107.792 62.4927C110.358 62.5485 112.924 62.5764 115.462 62.6182V63.3852C112.903 63.3852 110.344 63.3852 107.792 63.3852C107.451 63.3852 106.83 63.169 106.9 63.8802C106.9 64.0964 107.304 64.2776 107.52 64.4729L106.635 65.0934C106.021 65.7158 105.364 66.2937 104.669 66.8225C103.344 67.7289 103.023 68.5377 104.369 69.7858C105.373 70.8375 106.304 71.9556 107.158 73.1325L106.635 73.7391ZM62.6325 91.0165H64.6126C70.567 91.0165 76.5214 91.0584 82.4757 91.0165C84.6232 91.0165 85.174 89.9846 84.1979 88.0603C83.3961 86.4706 82.0086 85.9686 80.3631 85.9686L45.3201 85.5781C44.6163 85.5388 43.9127 85.6603 43.2628 85.9333C42.6129 86.2063 42.0337 86.6237 41.569 87.1539C41.1768 87.5498 40.9061 88.0497 40.7887 88.5945C40.6714 89.1393 40.7123 89.7064 40.9067 90.2287C41.325 91.3024 42.3918 91.0096 43.2215 91.0165C49.6918 91.0235 56.1621 91.0165 62.6325 91.0165ZM105.763 64.1452C105.763 63.6989 102.821 60.2337 102.424 60.2476C102.026 60.2616 98.3518 64.1033 98.3657 64.431C98.3657 65.0725 101.099 67.6871 101.747 67.715C102.396 67.7429 105.728 64.7517 105.763 64.1452Z" fill="#404A53"/>
<path d="M5.10376 0.878031C6.76634 0.265554 8.5355 -0.00480007 10.3051 0.083184C41.6806 0.083184 73.0004 -0.188737 104.348 0.236575C109.27 0.299327 114.214 0.145935 119.115 0.794362C119.823 0.926346 120.521 1.10097 121.207 1.31729L120.51 1.88902C113.538 0.871058 106.565 1.14995 99.5929 1.11509C70.2393 0.975643 40.8858 1.03839 11.5253 1.03839C9.39255 1.00767 7.26279 1.20872 5.17348 1.63802C5.18046 1.39398 5.13862 1.12903 5.10376 0.878031Z" fill="#404A53"/>
<path d="M106.635 73.7392L107.186 73.1396C107.604 73.537 108.043 73.9275 108.448 74.3458C113.105 79.1358 117.735 83.9537 122.392 88.7089C123.982 90.3264 125.753 90.3892 127.057 89.0854C128.361 87.7815 128.061 86.2964 126.471 84.7067C123.355 81.4925 120.266 78.2503 117.1 75.0849C113.691 71.6824 110.47 68.0638 106.642 65.1005L107.527 64.48C109.952 66.4591 112.23 68.6098 114.346 70.9154C114.775 71.402 115.318 71.7732 115.928 71.9949C116.537 72.2167 117.192 72.2818 117.833 72.1844C124.289 71.6615 124.289 71.7242 124.923 65.3306H125.656C125.823 71.8916 124.903 72.8538 118.335 73.0002C117.86 73.0002 117.31 72.791 116.745 73.6068C120.301 77.0929 123.905 80.614 127.468 84.1768C129.142 85.8641 129.225 88.0744 127.803 89.7059C126.269 91.456 123.829 91.449 121.758 89.4409C119.067 86.8403 116.508 84.1001 113.914 81.3949C111.474 78.8569 109.061 76.2911 106.635 73.7392Z" fill="#465058"/>
<path d="M0.773952 58.6931C-0.241666 41.0498 -0.267272 23.3634 0.697256 5.71729H1.47119C1.26899 16.7894 0.627533 27.8475 0.94826 38.9265C1.12954 45.2249 1.31547 51.5232 1.50605 57.8216L0.773952 58.6931Z" fill="#404A53"/>
<path d="M0.773926 58.6928L1.50602 57.8213C1.64547 61.2656 1.85464 64.71 1.91042 68.1543C1.91042 70.4133 3.05388 71.5429 5.17347 71.8148C6.19459 71.9251 7.22124 71.9764 8.24827 71.9682C13.5333 72.0193 18.816 72.0588 24.0964 72.0867V72.7839C18.0793 72.7839 12.0621 72.8955 6.04501 72.7421C2.03592 72.6445 1.09465 71.4522 1.0319 67.4501C0.969151 64.5566 0.857594 61.6212 0.773926 58.6928Z" fill="#465058"/>
<path d="M50.5146 72.9584H71.4316C71.9406 72.9584 72.4566 72.9584 72.9725 72.9584C73.4885 72.9584 74.2136 73.063 74.1509 73.8857C74.0881 74.7085 73.4536 74.4505 72.9656 74.4505H66.5789C62.026 74.4505 57.4661 74.2901 52.9271 74.5551C51.3165 74.6457 51.428 73.2303 50.5007 72.8887C50.4937 72.9096 50.5146 72.9584 50.5146 72.9584Z" fill="#FAFBFB"/>
<path d="M125.648 65.3378H124.916V11.0303H125.669C126.199 29.1235 126.081 47.2307 125.648 65.3378Z" fill="#404A53"/>
<path d="M125.648 11.0165H124.895C124.802 10.223 124.767 9.42368 124.791 8.62502C125.118 5.26435 123.696 3.04715 120.566 1.88277L121.263 1.31104C124.296 2.329 125.593 3.98144 125.69 7.06321C125.711 8.36704 125.662 9.69876 125.648 11.0165Z" fill="#465058"/>
<path d="M1.47107 5.71673H0.697144C0.941175 2.99752 2.53784 1.53333 5.08972 0.87793C5.08972 1.12893 5.16641 1.37994 5.20127 1.63791C4.26551 1.9108 3.4227 2.43555 2.76487 3.15485C2.10705 3.87416 1.65949 4.76037 1.47107 5.71673Z" fill="#465058"/>
<path d="M48.8482 83.884H47.9487L49.1549 81.876C49.3223 82.0991 49.4826 82.3222 49.643 82.5732C49.6066 82.8343 49.5173 83.0851 49.3807 83.3105C49.244 83.5359 49.0628 83.731 48.8482 83.884Z" fill="#465058"/>
<path d="M49.2944 81.4995L49.7546 80.1538L50.41 80.5582L49.9498 81.876L49.2944 81.4995Z" fill="#404A53"/>
<path d="M49.6432 82.5523C49.4828 82.3222 49.3225 82.0991 49.1551 81.855C49.1396 81.7855 49.1445 81.713 49.1692 81.6462C49.194 81.5794 49.2375 81.5212 49.2946 81.4785L49.95 81.855L49.6432 82.5523Z" fill="#404A53"/>
<path d="M1.47117 5.71742C1.66074 4.75938 2.11037 3.872 2.7708 3.15254C3.43123 2.43308 4.27696 1.9093 5.21531 1.6386C7.30462 1.20931 9.43438 1.00826 11.5671 1.03898C40.9276 1.03898 70.2812 0.976231 99.6347 1.11568C106.607 1.11568 113.579 0.871646 120.552 1.88961C123.682 3.06096 125.105 5.27119 124.777 8.63186C124.753 9.43052 124.788 10.2299 124.882 11.0234V65.3309C124.247 71.7245 124.247 71.6618 117.791 72.1847C117.15 72.2821 116.495 72.217 115.886 71.9953C115.276 71.7735 114.733 71.4023 114.305 70.9158C112.189 68.6101 109.91 66.4594 107.486 64.4803C107.269 64.2851 106.893 64.1038 106.865 63.8876C106.795 63.1904 107.416 63.3996 107.757 63.3926C110.316 63.3926 112.875 63.3926 115.427 63.3926C116.598 63.7133 116.522 62.9952 116.389 62.2282C116.389 61.9354 116.48 61.6495 116.48 61.3567C116.48 44.2094 116.48 27.0667 116.48 9.92871C116.48 9.63587 116.48 9.34304 116.48 9.0502C116.48 8.56213 116.347 8.09499 115.783 8.17866C115.35 8.23444 115.392 8.67369 115.427 9.06414C115.852 13.6798 115.65 18.3095 115.664 22.9321C115.711 36.0262 115.757 49.1202 115.804 62.2143L115.448 62.6256C112.882 62.5838 110.316 62.5559 107.778 62.5001C104.599 62.4374 102.898 59.7112 104.243 56.9711C108.301 48.8204 106.586 38.1876 100.116 32.0031C99.2652 31.1943 98.9096 30.6087 99.7672 29.6813C100.048 29.2702 100.201 28.7849 100.206 28.2869C100.764 27.492 101.545 28.2869 102.208 27.9871C103.449 27.4293 104.683 26.8227 104.752 25.2957C104.815 23.9571 103.93 23.204 102.661 22.8345C102.076 22.6011 101.426 22.5837 100.83 22.7856C100.233 22.9875 99.7278 23.3954 99.4046 23.9361C99.0269 24.4412 98.8556 25.0711 98.9256 25.6979C98.9955 26.3247 99.3014 26.9013 99.7811 27.3107C100.039 27.5687 100.646 27.7221 100.22 28.2939C98.4634 30.6366 96.8109 29.2909 94.9284 28.3357C82.664 22.1094 67.6526 29.5001 64.9473 42.9776C64.8218 43.6051 64.7103 44.2326 64.5917 44.8601C63.8945 44.8601 63.6435 44.3721 63.267 44.0653C60.4781 41.7784 60.4781 41.7644 57.6543 44.1908C56.2598 45.39 54.9211 46.6311 53.5615 47.8652C53.4848 47.9349 53.5615 48.1371 53.4918 48.6252C55.4022 47.8373 56.5805 46.3522 58.0587 45.2924C58.993 44.5952 59.7808 42.887 61.0359 43.6469C62.751 44.6231 64.8427 45.3203 64.7312 48.2347C64.6331 50.4462 64.9732 52.6553 65.7318 54.735C66.4904 56.8146 67.6526 58.7238 69.1517 60.3527C69.6816 60.9383 70.1626 61.5659 70.9436 62.5071H10.075C10.6468 63.8109 11.5811 63.4205 12.2922 63.4205C31.7125 63.4205 51.1282 63.4205 70.5391 63.4205C71.1876 63.4205 71.836 63.553 72.4844 63.6157C75.131 65.9718 78.4301 67.4695 81.9459 67.9107C83.3404 68.0501 84.7348 68.9844 86.1293 67.9734L87.4471 68.4615C90.3815 68.1872 93.2182 67.2631 95.7511 65.7562C96.8318 65.059 97.5918 65.1496 98.3379 66.1815C100.018 68.5312 103.337 68.9705 104.787 71.5712C104.773 71.6776 104.773 71.7854 104.787 71.8919C101.852 71.9407 98.9166 72.0383 95.9812 72.0383C72.4565 72.0383 48.9319 72.0174 25.4072 71.9756C24.9679 71.9756 24.5287 72.0313 24.0894 72.0592C18.8044 72.022 13.5217 71.9825 8.24131 71.9407C7.21714 71.9579 6.19283 71.916 5.17348 71.8152C3.08178 71.5433 1.94529 70.4207 1.91043 68.1547C1.85465 64.7104 1.64548 61.266 1.50603 57.8217C1.31545 51.5234 1.12952 45.225 0.948243 38.9267C0.627516 27.8476 1.26897 16.7895 1.47117 5.71742ZM105.359 7.92068C93.7291 7.66968 82.0993 7.80215 70.4973 7.92068C63.8736 7.92068 57.2499 7.87885 50.6401 7.92068C37.7692 7.97646 24.8959 8.05315 12.0203 8.15077C10.9257 8.15077 9.92861 7.95554 9.92861 9.76835C10.0053 23.3017 9.92861 36.835 9.97045 50.3683C9.97045 50.9121 9.66367 51.693 10.6677 51.9719C10.938 51.1284 11.0189 50.2357 10.9047 49.3573C10.9047 36.5561 10.9047 23.7549 10.842 10.9606C10.842 9.29423 11.2534 8.91075 12.8919 8.9247C22.6043 8.98048 32.3098 8.9247 42.0223 8.87589C51.5093 8.8387 60.9963 8.79687 70.4834 8.75039L105.345 8.66672C108.531 8.75736 111.732 9.07809 114.897 8.66672V7.96949L105.359 7.92068ZM30.4482 38.599C29.8765 38.2155 29.5767 38.6826 29.2769 38.9336C25.0981 42.5221 20.9542 46.1244 16.8452 49.7408C16.7336 49.8384 16.6081 49.922 16.5035 50.0266C16.2456 50.2707 15.9039 50.5147 16.2734 50.9191C16.5384 51.205 16.8243 51.0167 17.0543 50.8703C17.486 50.5942 17.8983 50.289 18.2884 49.9569C22.0396 46.6799 25.7791 43.3913 29.5069 40.091C29.9811 39.7006 30.6783 39.4008 30.4343 38.585L30.4482 38.599ZM51.0654 49.0575C49.2944 49.0575 48.0394 50.2009 48.1301 51.8464C48.2207 53.6522 49.392 54.4192 51.0445 54.4541C51.4117 54.5003 51.7846 54.4683 52.1386 54.3601C52.4926 54.2519 52.8197 54.07 53.0983 53.8263C53.3769 53.5826 53.6007 53.2826 53.7551 52.9462C53.9094 52.6098 53.9908 52.2444 53.9938 51.8743C54.1263 50.2428 52.8224 49.0366 51.0515 49.0226L51.0654 49.0575ZM48.4229 48.1859C44.9367 45.0902 41.4506 41.9108 37.2672 39.7006C40.6101 42.9757 44.3538 45.815 48.409 48.1511L48.4229 48.1859ZM33.1465 32.5888C31.5498 32.7631 30.2739 33.5022 30.3018 35.2801C30.3018 36.8629 31.1106 38.1179 32.9582 38.1806C33.3445 38.2229 33.7353 38.1816 34.1041 38.0593C34.4729 37.9371 34.811 37.7368 35.0955 37.4722C35.38 37.2076 35.6041 36.8848 35.7527 36.5258C35.9012 36.1668 35.9707 35.78 35.9564 35.3917C35.8657 33.6835 34.9942 32.6585 33.1465 32.5888ZM106.928 28.3566C106.642 28.4751 105.952 27.8128 105.868 28.7122C105.805 29.3676 106.565 29.3606 107.004 29.5001C108.183 29.8557 108.992 29.2212 109.675 28.3915C110.756 27.0946 111.767 25.7559 112.882 24.466C113.252 24.0338 113.579 23.6154 113.036 23.1901C112.492 22.7648 112.136 23.4202 111.843 23.7618C110.763 25.0657 109.752 26.3904 108.671 27.7221C108.259 28.252 107.883 28.8377 106.928 28.3566ZM105.98 22.6114L106.558 23.1273C109.389 20.6452 111.585 17.6192 114.012 14.7605C113.775 14.5583 113.538 14.3561 113.314 14.147L105.98 22.6114ZM108.566 58.1703C109.591 58.4911 110.609 58.8676 111.641 59.1255C112.296 59.3068 112.826 58.6514 112.436 58.4283C111.484 57.8942 110.45 57.5241 109.375 57.3336C108.908 57.1733 108.685 57.6962 108.573 58.1564L108.566 58.1703ZM27.2688 33.4673C27.213 32.0729 28.3495 31.7591 29.493 31.278C26.2718 30.4274 26.2718 30.4274 27.2688 33.4673ZM14.879 54.8027C16.2756 55.2628 17.7799 55.2823 19.1879 54.8585C17.3332 54.1821 16.8033 54.1682 14.879 54.8027Z" fill="#FAFBFB"/>
<path d="M87.454 68.489L86.1363 68.0009C84.9301 67.0457 83.4101 67.6244 82.0993 67.1782C78.8367 66.5074 75.7687 65.1057 73.1259 63.0784C67.0948 57.647 64.4174 50.9745 65.9932 42.8935C67.813 33.5645 77.2675 26.3133 86.5686 26.9617C91.4288 27.2689 96.0134 29.3258 99.4742 32.752C102.935 36.1782 105.038 40.7419 105.394 45.5988C106.384 57.3263 98.0799 65.3654 89.0507 67.3037C88.479 67.4222 87.0287 66.8784 87.454 68.489ZM86.0247 29.9807C75.7614 29.9807 68.4544 37.1692 68.5172 47.1954C68.5014 49.2383 68.892 51.264 69.6663 53.1545C70.4406 55.045 71.5831 56.7627 73.0274 58.2076C74.4717 59.6526 76.1889 60.7958 78.079 61.571C79.9692 62.3461 81.9947 62.7377 84.0376 62.7228C94.6983 62.7856 102.312 55.8063 102.277 45.9892C102.249 36.7021 95.3886 29.9319 86.0247 29.9807Z" fill="#F4F5F6"/>
<path d="M49.6431 82.5522C49.7476 82.3221 49.8522 82.099 49.9498 81.855L50.41 80.5372C50.5913 79.9027 50.8284 79.2822 50.9469 78.6407C51.5744 75.2243 51.5674 75.2103 54.956 75.2312C60.8267 75.2312 66.7044 75.3149 72.5751 75.3358C73.4885 75.3358 74.2833 75.2034 74.3879 76.549C74.6238 79.4343 75.5285 82.2249 77.0304 84.6997C72.4914 84.6997 68.1198 84.6997 63.7411 84.6997C59.3625 84.6997 54.9281 84.6439 50.4937 84.5393C49.9359 84.5393 48.9179 85.1808 48.8134 83.8421C49.0321 83.6948 49.2185 83.5045 49.3612 83.2827C49.5039 83.0609 49.5998 82.8123 49.6431 82.5522Z" fill="#F8F8F9"/>
<path d="M62.6324 91.0164C56.1621 91.0164 49.6917 91.0164 43.2214 91.0164C42.3917 91.0164 41.3249 91.3023 40.9066 90.2286C40.7122 89.7063 40.6713 89.1392 40.7887 88.5944C40.906 88.0496 41.1768 87.5497 41.569 87.1538C42.0336 86.6236 42.6128 86.2062 43.2628 85.9332C43.9127 85.6602 44.6162 85.5387 45.3201 85.578L80.377 85.9754C82.0225 85.9754 83.41 86.4635 84.2118 88.0671C85.1879 89.9915 84.6371 91.0165 82.4896 91.0234C76.5352 91.0234 70.5809 91.0234 64.6265 91.0234H62.6324V91.0164Z" fill="#FAFBFB"/>
<path d="M106.677 65.1006C110.512 68.0638 113.733 71.6825 117.135 75.085C120.301 78.2504 123.41 81.4925 126.506 84.7068C128.096 86.3314 128.298 87.8653 127.092 89.0854C125.886 90.3056 124.017 90.3265 122.427 88.7089C117.742 83.9538 113.112 79.1359 108.483 74.3459C108.078 73.9276 107.639 73.5371 107.221 73.1397C106.367 71.9628 105.435 70.8447 104.432 69.793C103.086 68.5449 103.407 67.7361 104.732 66.8297C105.42 66.3001 106.07 65.7222 106.677 65.1006Z" fill="#F8F8F9"/>
<path d="M105.763 64.1455C105.729 64.7591 102.382 67.7084 101.747 67.6875C101.113 67.6666 98.3937 65.045 98.3658 64.4035C98.3658 64.1037 102.103 60.2619 102.424 60.2201C102.744 60.1783 105.791 63.6923 105.763 64.1455Z" fill="#F8F8F9"/>
<path d="M100.248 28.252C100.674 27.6802 100.067 27.5547 99.809 27.2689C99.3293 26.8595 99.0234 26.2828 98.9534 25.656C98.8835 25.0292 99.0548 24.3993 99.4325 23.8943C99.7557 23.3535 100.261 22.9456 100.858 22.7438C101.454 22.5419 102.103 22.5592 102.689 22.7926C103.937 23.1831 104.822 23.9152 104.78 25.2539C104.711 26.7808 103.476 27.3874 102.235 27.9452C101.573 28.245 100.792 27.4502 100.234 28.245L100.248 28.252ZM101.943 23.469C100.764 23.5526 99.9624 24.0965 99.9345 25.3375C99.9221 25.5605 99.9573 25.7835 100.038 25.9919C100.118 26.2002 100.242 26.3891 100.401 26.546C100.559 26.7029 100.75 26.8243 100.959 26.902C101.169 26.9798 101.392 27.0121 101.615 26.997C101.871 27.0417 102.133 27.0316 102.385 26.9672C102.637 26.9028 102.872 26.7857 103.075 26.6235C103.278 26.4613 103.445 26.2578 103.563 26.0265C103.681 25.7952 103.749 25.5413 103.762 25.2818C103.888 24.1522 102.967 23.6642 101.943 23.469Z" fill="#465058"/>
<path d="M73.126 63.0781C75.7688 65.1054 78.8368 66.5071 82.0994 67.1779C82.0436 67.4289 81.9948 67.6868 81.946 67.9378C78.4401 67.4912 75.1514 65.9939 72.5125 63.6429L73.126 63.0781Z" fill="#465058"/>
<path d="M115.483 62.6116L115.838 62.2002H116.459C116.591 62.9672 116.668 63.6853 115.497 63.3646C115.49 63.1205 115.483 62.8626 115.483 62.6116Z" fill="#465058"/>
<path d="M104.794 71.9194C104.78 71.8129 104.78 71.7051 104.794 71.5986C104.825 71.6466 104.841 71.7022 104.841 71.759C104.841 71.8158 104.825 71.8714 104.794 71.9194Z" fill="#465058"/>
<path d="M70.4624 8.74328C60.9754 8.78512 51.4884 8.82695 42.0014 8.86878C32.2889 8.86878 22.5834 8.97337 12.8709 8.91759C11.2324 8.91759 10.7792 9.28712 10.8211 10.9535C10.9047 23.7478 10.8838 36.549 10.8838 49.3502C10.998 50.2285 10.917 51.1213 10.6467 51.9648C9.6497 51.6859 9.94951 50.905 9.94951 50.3612C9.94951 36.8279 9.98437 23.2946 9.90768 9.76124C9.90768 7.94844 10.8838 8.15063 11.9994 8.14366C24.8703 8.05999 37.7436 7.9833 50.6192 7.91357C57.2359 7.91357 63.8666 7.91357 70.4764 7.91357L70.4624 8.74328Z" fill="#465058"/>
<path d="M70.4625 8.74342V7.92765C82.0854 7.80215 93.7153 7.66968 105.324 7.92765C105.324 8.17866 105.324 8.42269 105.324 8.66672L70.4625 8.74342Z" fill="#404A53"/>
<path d="M116.438 62.2143H115.818C115.771 49.1203 115.725 36.0262 115.678 22.9322C115.678 18.3095 115.866 13.6799 115.441 9.06421C115.441 8.67376 115.364 8.2345 115.797 8.17872C116.368 8.09505 116.494 8.5622 116.494 9.05027C116.494 9.3431 116.494 9.63594 116.494 9.92878C116.494 27.0761 116.494 44.2187 116.494 61.3567C116.55 61.6356 116.487 61.9215 116.438 62.2143Z" fill="#404A53"/>
<path d="M30.4342 38.5846C30.6782 39.4003 29.9531 39.7001 29.5069 40.0906C25.7883 43.3955 22.0488 46.6841 18.2884 49.9564C17.8991 50.2982 17.4868 50.6127 17.0543 50.8977C16.8242 51.0441 16.5383 51.2324 16.2734 50.9465C15.9038 50.5421 16.2734 50.2981 16.5035 50.0541C16.608 49.9495 16.7335 49.8658 16.8451 49.7682C20.982 46.1472 25.1282 42.5309 29.2838 38.9192C29.5626 38.6682 29.8625 38.2011 30.4342 38.5846Z" fill="#465058"/>
<path d="M51.0515 49.0226C52.8225 49.0226 54.1263 50.2427 53.9799 51.8603C53.9769 52.2305 53.8956 52.5958 53.7412 52.9322C53.5869 53.2687 53.363 53.5686 53.0844 53.8123C52.8058 54.056 52.4787 54.238 52.1247 54.3462C51.7708 54.4544 51.3979 54.4864 51.0306 54.4401C49.3782 54.4401 48.2417 53.6383 48.1162 51.8324C48.0255 50.2009 49.2806 49.0086 51.0515 49.0226ZM50.9958 53.5337C51.2492 53.5619 51.5057 53.5368 51.7488 53.4599C51.9919 53.3831 52.2162 53.2562 52.4073 53.0874C52.5985 52.9186 52.7521 52.7117 52.8585 52.4799C52.9648 52.2482 53.0214 51.9967 53.0247 51.7418C53.0875 50.5983 52.2438 50.0754 51.198 49.9987C50.1521 49.922 49.1063 50.3543 49.0435 51.6024C48.9807 52.8504 49.8453 53.3733 50.9958 53.5337Z" fill="#465058"/>
<path d="M48.4089 48.1504C44.3469 45.8045 40.5984 42.9533 37.2532 39.665C41.4435 41.8334 44.8949 45.0547 48.4089 48.1504Z" fill="#404A53"/>
<path d="M33.1465 32.5889C34.9942 32.6586 35.8658 33.6835 35.9355 35.3778C35.9498 35.7661 35.8803 36.1529 35.7318 36.5119C35.5832 36.8709 35.3591 37.1937 35.0746 37.4583C34.7901 37.723 34.452 37.9232 34.0832 38.0454C33.7144 38.1677 33.3236 38.2091 32.9374 38.1667C31.0897 38.104 30.3018 36.849 30.2809 35.2662C30.2739 33.5022 31.5499 32.7701 33.1465 32.5889ZM32.9932 33.6138C32.024 33.8718 31.0827 34.2204 31.1943 35.4406C31.1922 35.7002 31.2481 35.9571 31.358 36.1924C31.4678 36.4277 31.6289 36.6355 31.8294 36.8005C32.0299 36.9656 32.2647 37.0838 32.5167 37.1464C32.7687 37.2091 33.0316 37.2147 33.286 37.1627C34.2691 37.0721 35.0291 36.577 34.9872 35.5242C34.9905 35.2653 34.9405 35.0084 34.8404 34.7696C34.7402 34.5308 34.592 34.3151 34.405 34.136C34.218 33.9569 33.9962 33.8181 33.7533 33.7282C33.5105 33.6384 33.2517 33.5994 32.9932 33.6138Z" fill="#465058"/>
<path d="M106.928 28.3563C107.883 28.8374 108.259 28.2517 108.671 27.7218C109.717 26.3901 110.762 25.0654 111.843 23.7616C112.136 23.4199 112.401 22.7157 113.035 23.1898C113.67 23.6639 113.252 24.0335 112.882 24.4658C111.787 25.7556 110.756 27.0943 109.675 28.3912C108.978 29.2209 108.183 29.8554 107.004 29.4998C106.544 29.3603 105.805 29.3673 105.868 28.7119C105.979 27.8125 106.677 28.4749 106.928 28.3563Z" fill="#465058"/>
<path d="M105.979 22.6113L113.307 14.1748C113.538 14.384 113.775 14.5862 114.005 14.7884C111.578 17.6191 109.382 20.6451 106.551 23.1552L105.979 22.6113Z" fill="#404A53"/>
<path d="M105.338 8.65948C105.338 8.41545 105.338 8.17141 105.338 7.92041H114.855V8.61764C111.725 9.06387 108.524 8.75012 105.338 8.65948Z" fill="#465058"/>
<path d="M108.573 58.156C108.685 57.6958 108.908 57.1659 109.382 57.2844C110.457 57.4749 111.491 57.845 112.443 58.3791C112.833 58.6371 112.303 59.2925 111.648 59.0763C110.616 58.8253 109.598 58.4767 108.573 58.156Z" fill="#404A53"/>
<path d="M27.2688 33.4672C26.2717 30.4552 26.2717 30.4552 29.4929 31.2779C28.3495 31.7311 27.1921 32.024 27.2688 33.4672Z" fill="#465058"/>
<path d="M14.8792 54.8024C16.8035 54.1679 17.3334 54.1818 19.1881 54.8582C17.78 55.282 16.2757 55.2625 14.8792 54.8024Z" fill="#465058"/>
<path d="M81.946 67.9382C81.9949 67.6872 82.0437 67.4292 82.0994 67.1782C83.4102 67.6245 84.9302 67.0457 86.1364 68.001C84.721 69.0259 83.3405 68.0777 81.946 67.9382Z" fill="#404A53"/>
<path d="M86.0247 29.981C95.3886 29.981 102.249 36.7372 102.277 46.0173C102.312 55.7786 94.6983 62.7928 84.0376 62.7509C81.9894 62.7659 79.9587 62.3724 78.0644 61.5933C76.17 60.8143 74.45 59.6654 73.0049 58.2138C71.5598 56.7622 70.4186 55.037 69.648 53.1392C68.8775 51.2414 68.493 49.2089 68.5172 47.1608C68.4544 37.1346 75.7614 29.981 86.0247 29.981ZM84.0097 61.7957C93.8616 61.9352 101.204 55.3533 101.35 46.2544C101.387 44.2498 101.024 42.2579 100.281 40.3957C99.5379 38.5334 98.4307 36.8382 97.0241 35.4095C95.6174 33.9808 93.9397 32.8473 92.0892 32.0756C90.2387 31.3038 88.2528 30.9093 86.2478 30.9153C76.9398 30.8107 69.4096 37.8876 69.333 46.7773C69.2976 50.7089 70.8228 54.4941 73.5741 57.3029C76.3254 60.1117 80.0782 61.7149 84.0097 61.7609V61.7957Z" fill="#404A53"/>
<path d="M101.942 23.4688C102.967 23.664 103.853 24.166 103.762 25.2816C103.749 25.5411 103.681 25.795 103.563 26.0263C103.444 26.2576 103.278 26.4611 103.075 26.6233C102.872 26.7855 102.637 26.9026 102.385 26.967C102.133 27.0314 101.871 27.0415 101.615 26.9968C101.392 27.0119 101.169 26.9796 100.959 26.9018C100.75 26.8241 100.559 26.7027 100.401 26.5458C100.242 26.3889 100.118 26.2 100.038 25.9917C99.9572 25.7833 99.9221 25.5603 99.9344 25.3373C99.9623 24.0963 100.764 23.5524 101.942 23.4688Z" fill="#F4F5F6"/>
<path d="M50.9957 53.5334C49.8453 53.373 48.9737 52.8362 49.0435 51.6021C49.1132 50.368 50.0614 49.9148 51.1979 49.9984C52.3344 50.0821 53.0874 50.5981 53.0247 51.7415C53.0214 51.9965 52.9647 52.2479 52.8584 52.4797C52.7521 52.7114 52.5984 52.9183 52.4073 53.0871C52.2162 53.2559 51.9919 53.3828 51.7488 53.4597C51.5056 53.5365 51.2491 53.5617 50.9957 53.5334Z" fill="#F4F5F6"/>
<path d="M32.9932 33.6133C33.2547 33.5987 33.5165 33.6386 33.7618 33.7305C34.0071 33.8225 34.2306 33.9644 34.4181 34.1473C34.6056 34.3303 34.7531 34.5502 34.851 34.7931C34.949 35.0361 34.9954 35.2967 34.9873 35.5586C35.0291 36.6114 34.29 37.1064 33.286 37.1971C33.0316 37.249 32.7688 37.2435 32.5167 37.1808C32.2647 37.1181 32.0299 37 31.8294 36.8349C31.6289 36.6698 31.4679 36.4621 31.358 36.2268C31.2481 35.9915 31.1922 35.7346 31.1943 35.4749C31.0828 34.2199 32.024 33.8713 32.9932 33.6133Z" fill="#F4F5F6"/>
<path d="M84.0096 61.7611C82.0575 61.7383 80.1291 61.3309 78.3346 60.5622C76.5401 59.7934 74.9147 58.6784 73.5516 57.281C72.1884 55.8835 71.1142 54.2309 70.3903 52.4179C69.6664 50.6048 69.307 48.6668 69.3328 46.7148C69.4095 37.8041 76.9397 30.7481 86.2477 30.8527C88.2527 30.8468 90.2386 31.2413 92.0891 32.013C93.9396 32.7848 95.6173 33.9182 97.024 35.3469C98.4306 36.7757 99.5378 38.4709 100.281 40.3331C101.023 42.1954 101.387 44.1872 101.35 46.1919C101.203 55.3186 93.8615 61.9005 84.0096 61.7611ZM71.7383 50.5565C72.7981 51.0307 72.9724 50.3962 73.2931 50.0545C75.3848 47.8094 77.4765 45.5574 79.6101 43.3193C79.9796 42.9218 80.1957 42.378 81.0045 42.4059C83.0962 42.4965 85.2925 41.7853 86.945 43.7306C87.1367 43.6201 87.3208 43.4966 87.4958 43.3611C86.1013 41.9666 84.7068 40.6488 84.2536 38.5502C83.9957 37.3928 82.3781 37.1557 81.2137 37.7344C80.0493 38.3131 79.0244 39.2056 79.6589 40.6767C80.0214 41.5274 79.7565 41.8132 79.1848 42.3919C76.605 44.9856 73.9625 47.5027 71.7383 50.5565ZM92.7111 46.3731C92.5577 44.7556 91.8465 43.5842 90.0546 43.5842C88.2627 43.5842 87.2657 44.5324 87.2657 46.2058C87.2456 46.5773 87.3039 46.9489 87.437 47.2964C87.57 47.6439 87.7747 47.9595 88.0378 48.2226C88.3009 48.4857 88.6165 48.6904 88.964 48.8235C89.3115 48.9565 89.6831 49.0149 90.0546 48.9947C91.5955 48.9738 92.6204 48.1092 92.732 46.3592L92.7111 46.3731ZM91.8814 42.9288L92.4671 43.2844L96.6505 36.3818L96.002 35.9983C94.503 38.2155 92.8157 40.3421 91.8814 42.9149V42.9288Z" fill="#FAFBFB"/>
<path d="M71.7383 50.5562C73.9625 47.5023 76.6189 44.9783 79.1568 42.3916C79.7286 41.8129 79.9935 41.527 79.631 40.6764C78.9965 39.2052 80.0144 38.2918 81.1858 37.734C82.3572 37.1763 83.9747 37.3924 84.2257 38.5498C84.6859 40.6415 86.0385 41.9872 87.4679 43.3607C87.2929 43.4962 87.1088 43.6197 86.9171 43.7303C85.2646 41.785 83.0404 42.4961 80.9766 42.4055C80.1957 42.4055 79.9796 42.9215 79.5822 43.3189C77.4905 45.557 75.3988 47.8091 73.2652 50.0542C72.9724 50.3958 72.7981 51.0303 71.7383 50.5562ZM82.0364 38.3894C81.8187 38.3843 81.6023 38.4243 81.4009 38.5069C81.1994 38.5896 81.0172 38.7131 80.8659 38.8696C80.7146 39.0262 80.5973 39.2125 80.5216 39.4166C80.4458 39.6208 80.4132 39.8384 80.4258 40.0558C80.4216 40.2784 80.4634 40.4995 80.5486 40.7052C80.6338 40.9109 80.7606 41.0968 80.9209 41.2513C81.0813 41.4057 81.2718 41.5254 81.4805 41.6029C81.6893 41.6803 81.9117 41.7138 82.134 41.7013C82.3738 41.7313 82.6172 41.7059 82.8455 41.6268C83.0739 41.5478 83.2809 41.4173 83.4508 41.2454C83.6206 41.0735 83.7486 40.8649 83.825 40.6357C83.9013 40.4065 83.9239 40.1627 83.8911 39.9234C83.8144 38.8984 83.0962 38.4243 82.0364 38.3894Z" fill="#465058"/>
<path d="M92.732 46.3593C92.6414 48.0745 91.6164 48.9739 90.0686 48.9251C89.697 48.9452 89.3254 48.8869 88.9779 48.7538C88.6304 48.6208 88.3149 48.4161 88.0518 48.153C87.7887 47.8899 87.5839 47.5743 87.4509 47.2268C87.3179 46.8793 87.2595 46.5077 87.2796 46.1362C87.2796 44.4628 88.3464 43.4797 90.0686 43.5146C91.7907 43.5494 92.5577 44.7417 92.732 46.3593ZM91.9023 46.2059C91.6722 45.1043 91.1005 44.414 89.9431 44.4419C88.7857 44.4698 88.1024 45.0555 88.186 46.2268C88.215 46.6999 88.4234 47.1442 88.7687 47.469C89.114 47.7937 89.5702 47.9745 90.0442 47.9745C90.5182 47.9745 90.9744 47.7937 91.3196 47.469C91.6649 47.1442 91.8733 46.6999 91.9023 46.2268V46.2059Z" fill="#465058"/>
<path d="M91.8816 42.9149C92.8159 40.3421 94.5032 38.2155 96.0162 35.9844L96.6646 36.3679L92.4812 43.2705L91.8816 42.9149Z" fill="#465058"/>
<path d="M82.0366 38.3896C83.0964 38.3896 83.8145 38.8986 83.8912 39.9235C83.9241 40.1629 83.9015 40.4066 83.8252 40.6359C83.7488 40.8651 83.6208 41.0737 83.4509 41.2456C83.2811 41.4174 83.074 41.5479 82.8457 41.627C82.6174 41.706 82.3739 41.7315 82.1342 41.7015C81.9119 41.714 81.6894 41.6805 81.4807 41.603C81.2719 41.5256 81.0814 41.4059 80.9211 41.2514C80.7607 41.097 80.634 40.9111 80.5488 40.7054C80.4636 40.4997 80.4218 40.2786 80.426 40.056C80.4134 39.8386 80.446 39.621 80.5217 39.4168C80.5975 39.2126 80.7147 39.0264 80.8661 38.8698C81.0174 38.7132 81.1995 38.5897 81.401 38.5071C81.6025 38.4244 81.8189 38.3844 82.0366 38.3896Z" fill="#F4F5F6"/>
<path d="M91.8815 46.2056C91.8525 46.6787 91.6441 47.1229 91.2988 47.4477C90.9535 47.7725 90.4974 47.9533 90.0234 47.9533C89.5493 47.9533 89.0932 47.7725 88.7479 47.4477C88.4026 47.1229 88.1942 46.6787 88.1652 46.2056C88.0816 45.0342 88.7927 44.4555 89.9223 44.4206C91.0518 44.3858 91.6514 45.1039 91.8815 46.2056Z" fill="#F4F5F6"/>
</svg>
