<svg width="167" height="102" viewBox="0 0 167 102" fill="none" xmlns="http://www.w3.org/2000/svg">
<path d="M27.4947 4.63473e-05C32.5713 0.913669 38.6886 1.97824 44.7741 3.10636C69.0685 7.60297 93.4424 11.6706 117.864 15.5952C124.818 16.7127 131.759 17.8912 138.687 19.1305C141.602 19.6469 144.502 20.2984 147.378 21.0134C148.176 21.2039 149.015 21.1228 149.761 20.783C153.042 19.5198 156.323 18.2566 159.628 17.049C162.075 16.1592 165.793 17.8435 166.723 20.2666C167.414 22.0303 166.349 23.8098 163.879 24.8506C160.701 26.1853 157.523 27.4405 154.345 28.7275C153.591 29.0374 152.995 29.2519 152.756 30.3164C150.556 39.0554 148.339 47.858 145.9 56.5334C142.325 69.2447 138.973 82.0751 134.778 94.6672C134.332 96.0197 133.741 97.3197 133.014 98.5442C131.425 101.158 129.105 102.445 126.023 101.873C114.654 99.7756 103.31 97.6147 91.9488 95.5173C69.0606 91.2511 46.1803 86.9372 23.2682 82.806C18.0407 81.8606 12.8609 80.6769 7.63337 79.7315C1.99275 78.651 -1.47107 74.496 0.610396 67.9974C7.0137 47.9771 12.9006 27.806 19.3992 7.79364C19.9114 6.19955 20.5298 4.64157 21.2503 3.1302C22.3943 0.794501 23.88 -0.0793991 27.4947 4.63473e-05ZM152.637 26.8685L151.843 26.3203L161.114 22.499C161.445 22.312 161.822 22.2204 162.202 22.2344C162.582 22.2484 162.951 22.3675 163.267 22.5784C164.22 23.3093 164.911 23.1107 165.563 22.1971C166.214 21.2835 165.817 20.4255 165.023 19.8137C163.807 18.9001 162.433 17.1126 160.955 18.3599C159.477 19.6072 158.31 18.3599 156.88 18.9716C140.776 25.7801 124.561 32.3264 108.418 38.968C102.38 41.4467 96.3898 44.0446 90.3281 46.4518C87.7462 47.4687 88.4373 49.0656 89.0411 50.9087C89.7323 53.014 90.9716 52.4976 92.4017 51.8938C98.7573 49.3595 105.176 46.8808 111.556 44.3544C127.81 37.9247 144.062 31.4816 160.312 25.0254C160.811 24.9324 161.283 24.7304 161.695 24.4338C162.107 24.1372 162.449 23.7532 162.695 23.3093C158.834 24.0879 155.887 25.9231 152.637 26.8685ZM148.617 31.0791C144.709 32.5886 140.816 34.1219 136.899 35.5678C136.479 35.7376 136.111 36.0149 135.832 36.3719C135.553 36.7289 135.373 37.153 135.31 37.6016C132.042 48.7822 128.78 59.9549 125.522 71.1196C123.902 76.6649 122.263 82.2049 120.605 87.7396C119.596 91.0842 118.484 91.7834 115.115 91.1557C109.927 90.2024 104.787 89.1458 99.5676 88.1527C72.339 82.957 45.1131 77.7533 17.8898 72.5417C15.3634 72.0571 12.6384 72.1365 10.3981 70.5079C10.978 69.7134 11.6533 70.3331 12.2253 70.4443C23.9991 72.6211 35.7677 74.8271 47.5309 77.0621C70.0563 81.384 92.5791 85.7349 115.099 90.115C118.341 90.7426 118.73 90.5599 119.763 86.9928C124.572 70.5158 129.362 54.0362 134.134 37.5539L134.23 36.966L133.435 37.0455C119.866 42.3418 106.299 47.6249 92.7353 52.8948C89.5575 54.1501 86.2844 53.4033 83.0509 53.443C81.9625 53.443 81.2475 52.5055 82.3756 51.6078C85.0927 49.4389 87.2298 46.563 90.6221 45.1886C103.492 39.9532 116.315 34.6065 129.153 29.2995C131.584 28.2906 134.007 27.2578 136.502 26.2012C135.795 25.2875 135 25.3431 134.285 25.216C119.262 22.6976 104.231 20.2189 89.2159 17.6131C87.2536 17.2794 85.0847 17.5337 83.3608 16.1672C84.7743 16.0783 86.1925 16.0969 87.6031 16.2228C102.07 18.6062 116.521 21.0769 130.996 23.4444C133.626 23.8734 136.232 25.2637 138.742 25.0333C141.419 24.795 143.97 23.1743 146.568 22.1574C144.074 21.2632 141.498 20.6165 138.877 20.2269C124.164 17.7879 109.443 15.4601 94.7453 12.9338C72.723 9.16805 50.7007 5.26728 28.6626 1.44595C24.1104 0.651499 22.6168 1.50157 21.1629 5.92668C14.1876 27.181 7.58041 48.5439 1.34129 70.0153C0.173446 73.9876 0.896399 75.0998 5.01962 75.8784C12.1697 77.2369 19.3595 78.5001 26.5176 79.8507C47.0145 83.7038 67.4955 87.6045 87.9924 91.4259C99.1148 93.4994 110.237 95.3981 121.36 97.4558C127.405 98.5521 129.749 97.4558 131.465 92.0853C137.892 72.0571 143.422 51.7746 149.022 31.5081C149.022 31.3174 149.022 31.1268 148.983 30.9361L148.617 31.0791ZM151.231 30.0225C150.499 30.7495 150.022 31.6946 149.872 32.7157C146.52 44.5636 143.17 56.4063 139.823 68.2437C137.439 76.6252 135.056 84.9987 132.18 93.2213C130.535 97.9086 128.279 99.2353 123.385 98.7825C122.631 98.7189 121.876 98.6554 121.137 98.5203C112.644 96.995 104.152 95.4855 95.6748 93.9045C68.8381 88.8995 42.0041 83.8679 15.1727 78.8099C11.6454 78.1585 8.11005 77.5467 3.91533 76.7999C4.88401 77.7218 6.11263 78.3236 7.43476 78.5239C10.7159 79.1992 13.997 79.8904 17.286 80.51C35.0659 83.8309 52.8484 87.1437 70.6336 90.4487C88.8266 93.8648 107.004 97.3366 125.189 100.777C128.565 101.412 130.901 100.324 132.458 97.2571C133.359 95.4733 134.098 93.6121 134.667 91.696C140.45 72.4463 145.789 53.0696 150.905 33.6372C151.35 32.4865 151.463 31.2341 151.231 30.0225ZM83.3449 52.2116C84.4079 52.6359 85.5759 52.7219 86.6895 52.4579C87.2615 52.4023 88.2784 52.7757 88.2784 51.862C88.3213 51.0332 88.0552 50.218 87.5317 49.574C86.9517 48.9623 86.3876 49.8759 85.8871 50.2175C85.1165 50.7577 84.3777 51.4012 83.3449 52.2116Z" fill="#404A53"/>
<path d="M83.4163 16.1672C85.1403 17.5337 87.3092 17.2794 89.2715 17.6131C104.287 20.2189 119.318 22.6976 134.341 25.216C135.056 25.3432 135.85 25.2875 136.557 26.2012C134.063 27.2578 131.64 28.2906 129.209 29.2995C116.37 34.6065 103.548 39.9532 90.6777 45.1886C87.2853 46.563 85.1165 49.439 82.4312 51.6078C81.3031 52.5056 82.0181 53.451 83.1065 53.443C86.3399 53.443 89.5972 54.1501 92.7909 52.8948C106.344 47.5985 119.911 42.3154 133.491 37.0455L134.166 37.5539C129.399 54.0309 124.609 70.5105 119.794 86.9928C118.762 90.5599 118.372 90.7426 115.131 90.115C92.6108 85.7508 70.1013 81.3999 47.6023 77.0621C35.8444 74.8059 24.0759 72.6 12.2968 70.4443C11.7248 70.3331 11.0495 69.7293 10.4695 70.5079H10.5093C10.7158 69.5943 10.8588 68.6648 11.1369 67.775C13.4408 60.5137 15.7844 53.2682 18.0963 46.0149C21.8038 34.2887 25.5112 22.5626 29.2187 10.8364C29.8622 8.81851 30.7281 7.41232 33.3101 7.88105C44.9171 9.98636 56.532 12.0758 68.1787 13.9745C73.2553 14.769 78.2603 16.199 83.4561 16.191L83.4163 16.1672ZM110.746 69.5546C110.285 68.3629 109.705 68.49 109.244 68.4264C105.59 67.9339 101.935 67.4254 98.2726 66.9885C95.206 66.6151 91.917 66.8772 89.0967 65.8762C85.5296 64.621 82.1055 63.7709 78.3318 64.2396C77.6543 64.395 76.9459 64.3466 76.2957 64.1007C75.6455 63.8547 75.0825 63.4222 74.6773 62.8573C73.3029 60.6726 71.4995 60.7679 69.426 61.4749C68.3932 61.8245 67.3604 62.182 66.3038 62.4442C65.2472 62.7063 63.8092 63.6279 62.983 62.6825C61.9979 61.5544 63.4755 60.609 64.0714 59.7033C65.2392 57.9317 64.3415 57.455 62.7367 57.4232C60.9333 57.4232 59.2967 58.0826 57.6363 58.6626C56.2142 59.1631 54.7842 59.8701 53.2509 59.457C51.0026 58.8215 48.9609 59.3935 46.8953 60.172C45.0324 60.9345 43.0626 61.4035 41.056 61.5623C40.063 61.61 38.8872 61.7689 38.7918 60.2912C38.7337 60.0422 38.7365 59.7829 38.8 59.5352C38.8635 59.2876 38.9859 59.0589 39.1567 58.8686C39.3274 58.6783 39.5416 58.5321 39.781 58.4423C40.0204 58.3525 40.2779 58.3218 40.5317 58.3527C41.041 58.3025 41.5409 58.1822 42.0173 57.9952C47.8407 56.3507 53.1397 53.8402 57.2311 49.1768C59.2967 46.7934 59.7416 43.7586 58.4228 42.2889C57.104 40.8191 54.8001 40.9542 51.9321 42.7576C46.5298 46.142 41.9299 50.4003 38.9269 56.1044C38.667 56.7596 38.1785 57.2985 37.552 57.6213C36.9254 57.944 36.203 58.0289 35.5187 57.8602C34.5256 57.7251 33.5484 57.4629 32.5554 57.312C29.7986 56.9068 26.5652 57.892 25.2305 59.8225C28.885 57.5742 32.6825 58.4242 36.4879 58.9804C37.2029 59.0836 37.7193 58.9804 37.6478 60.029C37.4969 62.2456 39.062 62.6587 40.8256 62.6587C43.345 62.5345 45.82 61.9474 48.1267 60.9268C49.4058 60.4422 50.7245 59.9893 52.0433 60.4024C54.2122 61.0777 56.1189 60.4024 58.105 59.7033C59.7416 59.0836 61.3941 58.2892 63.547 58.6149C63.118 59.314 62.8479 59.7271 62.6016 60.1482C62.0137 61.1492 61.1081 62.19 61.9899 63.326C62.8718 64.4621 64.27 64.184 65.4855 63.8663C66.701 63.5485 67.6941 63.0718 68.8143 62.7222C70.8799 62.0628 72.8501 61.5862 74.3755 63.9536C74.7241 64.4424 75.2007 64.8255 75.7529 65.061C76.3051 65.2964 76.9116 65.3751 77.5056 65.2883C81.6826 64.8887 85.8923 65.567 89.7323 67.2586C90.4533 67.4858 91.2102 67.5774 91.9647 67.5287C94.8925 67.5913 97.8125 67.8567 100.704 68.3231C103.897 68.8078 107.178 69.1176 110.714 69.5546H110.746Z" fill="#FAFBFB"/>
<path d="M10.398 70.5077C12.6384 72.0966 15.3633 72.0966 17.8897 72.5415C45.1024 77.7955 72.3231 83.0098 99.5517 88.1843C104.739 89.1774 109.88 90.234 115.099 91.1873C118.468 91.815 119.58 91.1158 120.589 87.7712C122.257 82.2206 123.902 76.67 125.522 71.1194C128.796 59.9494 132.055 48.7767 135.302 37.6014C135.365 37.1528 135.545 36.7287 135.824 36.3717C136.103 36.0147 136.471 35.7374 136.891 35.5676C140.808 34.1217 144.701 32.5884 148.609 31.0789L149.038 31.5C143.437 51.7665 137.916 72.0172 131.481 92.0771C129.765 97.4238 127.421 98.544 121.375 97.4476C110.253 95.4218 99.1306 93.4754 88.0083 91.4177C67.5113 87.5964 47.0303 83.6956 26.5334 79.8425C19.3833 78.4999 12.1935 77.2367 5.03544 75.8703C0.912217 75.0758 0.189263 73.9953 1.35711 70.0072C7.6333 48.541 14.2538 27.1781 21.2185 5.91854C22.6723 1.49342 24.1659 0.651303 28.7181 1.43781C50.7563 5.25914 72.7786 9.15991 94.8247 12.9336C109.522 15.452 124.219 17.7877 138.957 20.2267C141.577 20.6163 144.153 21.263 146.647 22.1572C144.049 23.1741 141.499 24.7948 138.822 25.0331C136.311 25.2556 133.705 23.8653 131.076 23.4442C116.601 21.0608 102.15 18.606 87.6825 16.2226C86.2719 16.0967 84.8536 16.0781 83.4401 16.167C83.2816 15.876 83.0536 15.6287 82.7764 15.4471C82.4992 15.2655 82.1814 15.1553 81.8512 15.1263C66.0178 12.4569 50.2002 9.69219 34.3746 6.99899C30.0369 6.2681 29.3537 6.75271 28.019 10.9713C24.4387 22.1148 20.8795 33.269 17.3415 44.4337C14.8522 52.2458 12.3815 60.0606 9.92927 67.878C9.34932 69.7212 9.3811 69.7371 10.4377 70.5236L10.398 70.5077ZM126.817 90.2975C128.549 88.5259 129.431 85.7692 128.811 83.8227C127.923 85.9056 127.254 88.0757 126.817 90.2975Z" fill="#F8F8F9"/>
<path d="M152.637 26.8682C155.887 25.9228 158.834 24.0877 162.631 23.325C162.385 23.7688 162.044 24.1528 161.632 24.4494C161.22 24.7461 160.747 24.9481 160.248 25.041C143.999 31.4973 127.747 37.9403 111.492 44.3701C105.137 46.8964 98.7096 49.3751 92.3381 51.9094C90.9081 52.4735 89.6687 53.0296 88.9776 50.9243C88.3738 49.0812 87.6826 47.4843 90.2646 46.4674C96.3263 44.0841 102.316 41.4624 108.354 38.9837C124.529 32.342 140.744 25.7957 156.816 18.9873C158.246 18.3835 159.469 19.5831 160.892 18.3755C162.314 17.168 163.744 18.9158 164.959 19.8294C165.754 20.4252 166.222 21.1799 165.499 22.2127C164.776 23.2455 164.157 23.325 163.203 22.5941C162.887 22.3832 162.518 22.2641 162.138 22.2501C161.758 22.236 161.382 22.3276 161.05 22.5146L151.779 26.336L139.64 31.1027C139.727 31.3331 139.823 31.5635 139.918 31.7939L152.637 26.8682Z" fill="#F4F5F6"/>
<path d="M151.231 30.0225C151.464 31.2308 151.354 32.4802 150.913 33.6293C145.789 53.0616 140.458 72.4384 134.675 91.688C134.106 93.6041 133.367 95.4653 132.466 97.2492C130.877 100.316 128.573 101.404 125.197 100.769C107.012 97.3525 88.8345 93.8807 70.6415 90.4407C52.8669 87.104 35.0844 83.7911 17.2939 80.5021C14.0048 79.8824 10.7237 79.1912 7.44265 78.516C6.12052 78.3157 4.8919 77.7138 3.92322 76.792C8.11794 77.5388 11.6533 78.1505 15.1806 78.802C42.012 83.8176 68.846 88.8492 95.6827 93.8966C104.16 95.4855 112.652 96.987 121.145 98.5124C121.884 98.6474 122.639 98.711 123.393 98.7745C128.287 99.2115 130.543 97.8848 132.188 93.2134C135.056 85.0066 137.439 76.6252 139.823 68.2437C143.186 56.4063 146.533 44.5636 149.864 32.7157C150.016 31.6936 150.496 30.7484 151.231 30.0225Z" fill="#F4F5F6"/>
<path d="M152.637 26.8685L139.974 31.7782C139.878 31.5478 139.783 31.3174 139.696 31.087L151.835 26.3203L152.637 26.8685Z" fill="#465058"/>
<path d="M83.3448 52.2111C84.3776 51.4167 85.1165 50.7573 85.9189 50.217C86.4194 49.8754 86.9834 48.9618 87.5634 49.5735C88.0869 50.2175 88.353 51.0327 88.3102 51.8616C88.2625 52.7752 87.2615 52.4018 86.7213 52.4574C85.5976 52.7282 84.4174 52.6421 83.3448 52.2111Z" fill="#F4F5F6"/>
<path d="M148.617 31.0787L149.007 30.9277C149.007 31.1184 149.007 31.3091 149.046 31.4997L148.617 31.0787Z" fill="#F8F8F9"/>
<path d="M133.467 37.0453L134.261 36.9658L134.166 37.5537L133.467 37.0453Z" fill="#FAFBFB"/>
<path d="M110.714 69.5543C107.179 69.1412 103.897 68.8076 100.64 68.3627C97.749 67.8962 94.829 67.6308 91.9012 67.5682C91.1467 67.6169 90.3898 67.5253 89.6687 67.2981C85.8288 65.6065 81.6191 64.9282 77.4421 65.3278C76.8481 65.4146 76.2416 65.336 75.6894 65.1005C75.1372 64.865 74.6606 64.4819 74.3119 63.9932C72.8263 61.6098 70.8561 62.1024 68.7508 62.7618C67.6306 63.1272 66.5581 63.6198 65.422 63.9058C64.2859 64.1918 62.8321 64.5572 61.9264 63.3655C61.0207 62.1739 61.9264 61.1649 62.5381 60.1877C62.7844 59.7667 63.0545 59.3933 63.4835 58.6544C61.3306 58.3287 59.6781 59.1232 58.0415 59.7428C56.0554 60.4817 54.1487 61.1172 51.9798 60.442C50.661 60.0288 49.3422 60.4419 48.0632 60.9663C45.7564 61.9869 43.2815 62.574 40.7621 62.6982C39.0382 62.6982 37.4731 62.2851 37.5843 60.0686C37.6558 59.0358 37.1394 59.1232 36.4244 59.0199C32.619 58.4638 28.8215 57.6137 25.167 59.862C26.5017 57.9315 29.7351 56.9464 32.4919 57.3515C33.4849 57.5025 34.4621 57.7646 35.4552 57.8997C36.1535 58.0834 36.8951 58.0015 37.5365 57.6698C38.1778 57.3382 38.6733 56.7803 38.9269 56.1042C41.93 50.4001 46.5299 46.1418 51.9322 42.7495C54.8001 40.946 57.1676 40.8825 58.4229 42.2807C59.6781 43.679 59.2968 46.7932 57.2312 49.1686C53.1795 53.8321 47.8407 56.3187 42.0174 57.9871C41.5478 58.1665 41.056 58.2814 40.5556 58.3287C40.3018 58.2977 40.0443 58.3284 39.8049 58.4182C39.5655 58.5081 39.3513 58.6543 39.1805 58.8446C39.0098 59.0349 38.8874 59.2635 38.8239 59.5112C38.7604 59.7589 38.7576 60.0182 38.8157 60.2672C38.9111 61.7449 40.0868 61.586 41.0799 61.5383C43.0865 61.3795 45.0563 60.9105 46.9192 60.148C48.9927 59.3535 51.0344 58.7974 53.2748 59.433C54.8081 59.8699 56.2381 59.1629 57.6602 58.6385C59.3206 58.0586 60.9572 57.3595 62.7606 57.3992C64.3495 57.3992 65.2631 57.9076 64.0953 59.6793C63.4994 60.585 62.0217 61.5304 63.0069 62.6585C63.8013 63.6039 65.2234 62.6585 66.3277 62.4201C67.432 62.1818 68.4171 61.8005 69.4499 61.4509C71.5155 60.7438 73.3268 60.6565 74.7012 62.8333C75.1017 63.3866 75.6542 63.8118 76.2916 64.0572C76.9291 64.3026 77.624 64.3576 78.2922 64.2156C82.0658 63.7469 85.4899 64.5969 89.057 65.8522C91.8932 66.8532 95.1664 66.591 98.233 66.9644C101.895 67.4014 105.55 67.9098 109.204 68.4024C109.673 68.4898 110.253 68.3627 110.714 69.5543ZM39.5943 57.3595C45.1555 56.0883 49.7156 54.3167 53.6561 51.0992C55.3099 49.8168 56.6653 48.1904 57.6284 46.3324C58.1686 45.252 58.55 44.1 57.6284 43.0672C56.7068 42.0344 55.6025 42.2728 54.5936 42.7653C48.1347 45.816 43.2885 50.5113 39.5943 57.3595Z" fill="#465058"/>
<path d="M10.4378 70.5236C9.38113 69.7292 9.34935 69.7292 9.9293 67.8781C12.3815 60.0607 14.8523 52.2459 17.3416 44.4337C20.8848 33.2743 24.4413 22.1149 28.0111 10.9554C29.3537 6.75277 30.0369 6.26815 34.3667 6.98316C50.2002 9.69225 66.0178 12.457 81.8274 15.166C82.1575 15.1951 82.4754 15.3053 82.7526 15.4869C83.0298 15.6685 83.2578 15.9158 83.4163 16.2068C78.2206 16.2068 73.2155 14.8165 68.139 13.9902C56.4923 12.0915 44.8774 10.018 33.2704 7.89678C30.6884 7.42805 29.8224 8.83424 29.1789 10.8522C25.4715 22.5783 21.764 34.3044 18.0566 46.0306C15.7447 53.284 13.4011 60.5294 11.0972 67.7907C10.7873 68.6805 10.6443 69.61 10.4378 70.5236Z" fill="#465058"/>
<path d="M126.817 90.2976C127.254 88.0757 127.923 85.9056 128.811 83.8228C129.431 85.8009 128.549 88.5259 126.817 90.2976Z" fill="#465058"/>
<path d="M39.5942 57.3596C43.2885 50.5114 48.1346 45.8162 54.5618 42.7575C55.5707 42.2729 56.7227 42.1299 57.5966 43.0594C58.4705 43.9889 58.1765 45.2442 57.5966 46.3246C56.6335 48.1825 55.2781 49.809 53.6243 51.0913C49.7156 54.3168 45.1316 56.0884 39.5942 57.3596Z" fill="#F4F5F6"/>
</svg>
