<svg width="93" height="115" viewBox="0 0 93 115" fill="none" xmlns="http://www.w3.org/2000/svg">
<path d="M0.316204 107.683C0.000866994 106.965 -0.108582 106.173 8.38451e-05 105.396V16.6604C8.38451e-05 15.8802 8.38451e-05 15.0933 8.38451e-05 14.3198C0.222041 10.5869 1.34528 9.51072 5.11182 9.21477C11.6293 8.71033 18.1602 8.97264 24.6844 8.86502C25.505 8.86502 26.1708 8.86502 26.8502 8.02428C27.9398 6.632 29.7423 7.16335 31.2557 7.17008C32.9304 7.17008 34.0469 7.24406 33.9461 4.86307C33.8855 2.11888 37.6655 -0.282296 40.9343 0.000194531C44.822 0.363397 46.6447 2.14578 46.9406 6.05357C47.0012 6.88759 47.2097 7.15663 48.0235 7.13645C49.2947 7.13645 50.5727 7.17681 51.8506 7.18353C52.7182 7.18353 53.7944 7.18353 54.2249 7.85613C55.2607 9.45018 56.7336 9.13406 58.1797 9.12734C64.065 9.12734 69.9569 9.12734 75.8421 9.12734C77.1873 9.12734 78.5325 9.0668 79.6019 10.1766L78.9293 10.6676C77.9056 10.1709 76.7779 9.92642 75.6404 9.95463C69.3247 9.95463 63.0023 10.0892 56.6866 9.95463C54.81 9.921 54.9445 10.8559 54.8369 12.1338C54.7159 13.6068 55.2539 13.9364 56.6126 13.9162C61.5091 13.8557 66.4123 13.8691 71.3088 13.9162C74.2615 13.9499 75.6605 15.2614 75.748 18.1939C75.8489 21.5973 75.8152 25.0074 75.8152 28.4174C75.8152 28.7672 75.9632 29.2985 75.2704 29.3456C74.6718 28.7739 74.9408 28.034 74.9341 27.3749C74.887 24.3953 74.9341 21.4157 74.8601 18.4361C74.8131 15.9878 73.7369 14.8108 71.3963 14.7839C66.2845 14.7368 61.1728 14.7839 56.061 14.7839C55.597 14.7839 54.9378 14.5754 54.7629 15.2009C54.2249 17.1178 52.6779 16.8488 51.2923 16.8555C45.1179 16.8869 38.9435 16.8869 32.769 16.8555C30.2468 16.8555 27.59 17.2792 25.7538 14.8377C25.8144 14.5821 25.7942 14.266 25.9422 14.0844C26.9645 12.8199 26.6147 11.3066 26.2448 10.0488C25.9623 9.20132 24.5835 9.67887 23.7024 9.68559C17.8172 9.74613 11.932 9.80666 6.05346 9.98826C1.64122 10.1295 0.887912 11.0375 0.881186 15.5708C0.881186 45.3579 0.881186 75.145 0.881186 104.932C0.881186 105.78 0.995528 106.627 1.05606 107.474L0.316204 107.683ZM40.7864 15.9475C43.2683 15.9475 45.7501 15.9946 48.232 15.9475C55.1732 15.8062 53.7473 16.8622 54.0634 10.0219C54.124 8.6767 53.5657 8.17897 52.4021 8.11844C50.7005 8.031 48.9988 8.01083 47.2971 7.9772C46.5573 7.9772 45.8645 7.9772 46.0528 6.86741C46.4227 4.59403 45.6627 2.77129 43.5575 1.72877C42.4497 1.15003 41.2039 0.887786 39.9568 0.970844C38.7097 1.0539 37.5097 1.47905 36.4885 2.19959C35.3585 2.93944 34.4707 4.13667 34.8137 5.43478C35.4863 8.23278 33.9057 8.19915 32.0023 8.02428C31.37 7.97047 30.7176 8.08481 30.0854 8.02428C27.8792 7.74851 27.1461 8.76413 27.395 10.8559C27.4959 11.8443 27.4959 12.8404 27.395 13.8288C27.2604 15.4161 27.9936 15.9811 29.5069 15.9609C33.2667 15.9206 37.0266 15.9475 40.7864 15.9475Z" fill="#404A53"/>
<path d="M80.9471 94.8767C80.9471 95.8318 81.6197 96.4035 82.178 97.029C85.2585 100.345 88.3524 103.661 91.4194 106.997C93.3767 109.122 93.5112 111.443 91.8364 112.99C90.1617 114.537 87.8345 114.382 85.7831 112.371C84.5253 111.127 83.3079 109.835 82.1511 108.497C81.3708 107.589 80.8866 107.306 80.2611 108.665C80.011 109.302 79.563 109.842 78.983 110.205C78.4029 110.568 77.7216 110.736 77.0393 110.683V109.936C80.4023 108.719 80.8059 106.883 78.324 104.313C77.5438 103.506 76.7972 102.665 75.8421 101.623C75.4251 104.643 73.4544 105.215 71.0532 105.188C67.9391 105.188 64.8182 105.188 61.7041 105.147V104.367C65.0066 104.367 68.309 104.367 71.6115 104.246C74.3422 104.159 75.8892 101.831 74.4633 99.8876C73.3871 98.4079 72.5935 96.76 71.5173 95.2937C71.867 93.9486 72.9499 94.6884 73.71 94.527C73.0374 95.1996 72.8221 95.9125 73.4947 96.7533C77.69 102.113 82.1621 107.249 86.8929 112.142C88.3053 113.582 90.0204 113.488 91.2311 112.189C92.5427 110.777 92.2871 109.378 91.0361 108.053C86.6732 103.399 82.3125 98.7397 77.954 94.0763C77.2209 93.2961 76.4609 92.7782 75.3511 93.2692C75.3015 92.6105 75.4692 91.9537 75.8286 91.3994C77.5841 92.0048 78.4249 93.8746 80.1467 94.5203L80.9471 94.8767Z" fill="#465058"/>
<path d="M80.9472 94.8766L80.1737 94.4932C80.1737 80.3283 80.1557 66.1634 80.1199 51.9985C80.1199 39.6048 80.1356 27.2111 80.167 14.8174H80.9337C80.9337 26.8165 81.0279 38.8089 81.0279 50.8013C81.0279 65.4998 81.001 80.1916 80.9472 94.8766Z" fill="#404A53"/>
<path d="M77.0664 109.909V110.656C68.1948 110.71 59.3232 110.804 50.4517 110.81C38.883 110.81 27.3143 110.757 15.739 110.73V110.057C16.1627 110.057 16.5864 109.956 17.0102 109.956L77.0664 109.909Z" fill="#404A53"/>
<path d="M0.316345 107.683L1.08983 107.616C1.54047 109.21 2.7646 109.849 4.25104 110.158V110.716C2.092 110.77 0.672822 109.916 0.316345 107.683Z" fill="#465058"/>
<path d="M80.9337 14.7974H80.167C80.0392 13.3312 80.1064 11.8044 78.9563 10.6341L79.6289 10.1431C81.0481 11.4345 80.9741 13.1294 80.9337 14.7974Z" fill="#465058"/>
<path d="M4.23071 110.683V110.124L13.9565 110.084V110.757L4.23071 110.683Z" fill="#404A53"/>
<path d="M13.9968 110.723V110.05C14.5788 109.865 15.2039 109.865 15.7859 110.05V110.723H13.9968Z" fill="#465058"/>
<path d="M78.9562 10.6543C80.1064 11.8246 80.0391 13.3447 80.1669 14.8176C80.1669 27.2069 80.1512 39.6006 80.1198 51.9988C80.1198 66.1637 80.1378 80.3286 80.1736 94.4935C78.4518 93.8209 77.6111 91.978 75.8556 91.3726C75.7749 86.1398 75.5327 80.9003 76.5282 75.7213C76.5685 74.5241 76.8645 73.2596 76.5887 72.1431C75.4049 67.2533 75.8757 62.303 75.8152 57.346C75.8152 54.9448 75.7749 52.5436 75.7547 50.1424V45.8311H75.0081V64.9598C73.8445 63.3724 73.1517 62.2694 72.3177 61.321C66.6679 54.5479 59.5384 52.1737 50.8619 53.761C47.0079 54.4336 44.1359 57.5074 39.9187 57.6957C41.1496 58.523 41.1428 58.5163 40.4904 59.2965C39.5171 60.3351 38.6181 61.4409 37.8 62.6057C37.5973 62.971 37.2769 63.2569 36.891 63.4169C36.5051 63.5769 36.0763 63.6015 35.6746 63.4868H18.1871C17.5683 63.4868 16.8419 63.1101 16.3778 64.0248C16.9305 64.327 17.5778 64.4064 18.1871 64.2468H35.6746C36.0244 64.3477 36.7171 64.1997 36.4616 64.8454C35.8837 66.262 35.4335 67.7273 35.1164 69.224C34.9684 69.8966 34.4438 69.7621 33.9662 69.7755C28.5855 69.5872 23.2047 69.5939 17.8239 69.7755C17.3665 69.7217 16.5998 69.4661 16.5863 69.9908C16.5863 70.771 17.3195 70.4818 17.8239 70.4078C23.2047 70.5221 28.5855 70.697 33.9999 70.4683C35.3451 70.5558 34.7666 71.5647 34.7532 72.2036C34.6792 76.2392 35.0289 80.1806 37.3965 83.6378C36.8113 84.196 36.0513 84.0279 35.3787 84.0211C29.7894 84.0211 24.1934 83.9741 18.6041 84.0211C17.8912 84.0211 17.0437 83.6849 16.3711 84.5391C17.0437 85.1578 17.8441 84.9561 18.5638 84.9628C22.8818 84.9628 27.1999 84.9628 31.5112 85.0166C33.7644 85.057 36.0244 84.613 38.2372 85.1175C42.7234 91.07 48.5078 94.4061 56.135 94.0429C56.4579 94.1236 56.8076 94.2177 56.8076 93.7066C56.8076 93.6527 56.9018 93.5922 56.8883 93.5451C56.8657 93.4379 56.8295 93.3339 56.7807 93.2357C56.8413 94.6145 57.8502 94.063 58.4757 93.9823C60.8384 93.7434 63.1344 93.0587 65.242 91.9645C66.4123 91.2919 67.058 91.5273 67.8517 92.543C68.8135 93.7671 69.6273 95.3342 71.5779 95.2333C72.654 96.6996 73.4477 98.3475 74.5238 99.8272C75.9497 101.771 74.4028 104.098 71.672 104.186C68.3696 104.293 65.0671 104.273 61.7647 104.307C60.9105 104.307 60.063 104.253 59.2155 104.26C44.8959 104.408 30.5763 104.865 16.25 104.69C12.9207 104.65 9.47697 105.363 6.39648 103.345C7.1027 102.43 6.39648 101.495 6.39648 100.58C6.39648 86.8124 6.30231 73.0511 6.34939 59.283C6.38975 44.8693 5.83149 30.4622 6.40993 16.0485C7.21032 16.2906 7.35829 15.8803 7.25067 15.2077L7.60715 15.3086L7.66096 14.8042C8.6564 14.7437 9.97469 15.6786 10.4321 13.9231H15.5236C15.0192 15.1069 16.0146 14.8378 16.4854 14.7975C16.9563 14.7571 18.1198 15.3221 17.6625 13.9231C20.4336 13.7886 23.0433 14.7033 25.8009 14.8983C27.6371 17.3264 30.2938 16.9161 32.8161 16.9161C38.9905 16.9161 45.165 16.9161 51.3394 16.9161C52.725 16.9161 54.2719 17.1785 54.81 15.2616C54.9849 14.636 55.644 14.8513 56.1081 14.8445C61.2199 14.8445 66.3316 14.7907 71.4433 14.8445C73.784 14.8445 74.8601 16.0485 74.9072 18.4967C74.9677 21.4763 74.9072 24.456 74.9812 27.4356C74.9812 28.1082 74.7189 28.8346 75.3175 29.4063C75.9901 29.3592 75.8623 28.8278 75.8623 28.4781C75.8623 25.068 75.8623 21.6579 75.795 18.2546C75.7076 15.349 74.3086 14.0105 71.3559 13.9769C66.4594 13.9231 61.5562 13.9096 56.6597 13.9769C55.3145 13.9769 54.7629 13.6675 54.884 12.1945C54.9916 10.9166 54.884 9.98167 56.7336 10.0153C63.0493 10.1229 69.3717 10.0153 75.6874 10.0153C76.8122 9.96721 77.9324 10.1862 78.9562 10.6543ZM31.0875 38.6141C31.3162 36.4685 30.879 34.4171 31.3296 32.3791C31.5045 31.5855 31.0472 30.9129 30.3544 31.4577C29.0092 32.5137 27.5362 32.2043 26.1103 32.2177C23.4199 32.2177 20.7295 32.137 18.0391 32.063C16.7612 32.0227 16.0617 32.4464 16.0886 33.8858C16.1424 37.2488 16.1222 40.679 16.0886 44.0756C16.0886 45.4679 16.6805 46.1539 18.1064 46.1472C21.8595 46.1472 25.6126 46.1472 29.3657 46.1472C30.7109 46.1472 31.0539 45.3737 31.0472 44.2236C31.0808 42.3336 31.0875 40.4234 31.0875 38.6141ZM16.6805 27.449V27.8997H64.1927V27.449H16.6805ZM35.6477 92.4084C35.6477 92.2134 35.6477 92.0183 35.6477 91.83H16.4922V92.4219C22.8684 92.5362 29.2782 92.6977 35.6477 92.4084ZM37.9682 39.1993V39.6432H64.1927V39.1993H37.9682ZM64.1995 45.4275C62.1279 44.2505 39.0107 44.3917 37.8 45.4275H64.1995ZM32.1368 57.958V57.541H16.593V57.958H32.1368ZM16.5998 75.876V76.3266H30.9395V75.876H16.5998ZM64.2331 33.5696H37.9346C39.8111 34.3028 62.4776 34.3028 64.2331 33.5696ZM75.1359 42.5152H75.5865V32.6616H75.1359V42.5152Z" fill="#FAFBFB"/>
<path d="M25.7808 14.9113C23.05 14.7162 20.4 13.8015 17.6424 13.936H10.4119C9.41649 14.1243 8.28653 13.6535 7.64084 14.7969H7.1902L7.22383 15.2341C7.0086 14.844 6.71938 14.8776 6.46379 15.1601C6.20821 15.4426 5.83155 15.7184 6.38308 16.0749C5.03789 16.2497 5.42799 17.3595 5.40782 18.0926C5.31365 20.9983 5.33383 23.9106 5.34056 26.8364C5.36746 51.3952 5.41678 75.9539 5.48853 100.513C5.48853 101.508 5.05807 102.746 6.35618 103.398C6.82027 105.685 8.7439 105.611 10.3514 105.624C27.4757 105.819 44.6 105.416 61.7244 105.113C64.8385 105.113 67.9593 105.113 71.0735 105.154C73.4746 105.154 75.4454 104.609 75.8624 101.589C76.8174 102.631 77.564 103.472 78.3442 104.279C80.8261 106.849 80.4091 108.685 77.0596 109.902L17.0303 109.969C16.6066 109.969 16.1828 110.037 15.7591 110.07C15.1771 109.885 14.552 109.885 13.97 110.07L4.24422 110.111C2.75778 109.801 1.55384 109.162 1.08302 107.568C1.02248 106.721 0.908142 105.873 0.908142 105.026C0.908142 75.2387 0.908142 45.4517 0.908142 15.6646C0.908142 11.1313 1.66818 10.2233 6.08041 10.082C11.9589 9.90042 17.8441 9.83988 23.7294 9.77935C24.6105 9.77935 25.9893 9.29508 26.2718 10.1426C26.6753 11.3667 26.9915 12.88 25.9691 14.1781C25.8211 14.3396 25.8413 14.6557 25.7808 14.9113Z" fill="#F4F5F6"/>
<path d="M40.7864 15.9475C37.0266 15.9475 33.2667 15.9475 29.5136 15.9475C28.0003 15.9475 27.2672 15.4027 27.4017 13.8154C27.5026 12.827 27.5026 11.8309 27.4017 10.8425C27.1528 8.75071 27.886 7.73509 30.0921 8.01085C30.7243 8.08484 31.3767 7.97049 32.009 8.01085C33.9124 8.18573 35.493 8.21936 34.8204 5.42135C34.511 4.12324 35.3652 2.92602 36.4952 2.18616C37.5164 1.46562 38.7165 1.04048 39.9635 0.957417C41.2106 0.874359 42.4564 1.1366 43.5642 1.71534C45.6694 2.75787 46.4295 4.5806 46.0595 6.85398C45.8712 7.9974 46.564 7.95032 47.3038 7.96377C49.0055 7.96377 50.7072 8.01758 52.4088 8.10501C53.5724 8.16555 54.1307 8.68345 54.0702 10.0085C53.754 16.8488 55.18 15.7928 48.2387 15.934C45.7569 15.9879 43.275 15.934 40.7931 15.934L40.7864 15.9475Z" fill="#F8F8F9"/>
<path d="M75.3782 93.242C76.4879 92.751 77.248 93.242 77.9811 94.0491C82.3306 98.717 86.6912 103.376 91.0631 108.026C92.3141 109.371 92.5697 110.716 91.2582 112.162C90.0475 113.467 88.3324 113.554 86.9199 112.115C82.1892 107.222 77.7171 102.085 73.5218 96.7261C72.8492 95.8853 73.0577 95.1791 73.737 94.4998L75.3782 93.242Z" fill="#F8F8F9"/>
<path d="M75.378 93.2421L73.7369 94.4998C72.9769 94.6612 71.894 93.9214 71.5442 95.2666C69.5937 95.3338 68.7799 93.7667 67.818 92.5762C67.0244 91.5606 66.3787 91.3453 65.2084 91.9977C63.1342 93.0588 60.8808 93.7248 58.5631 93.9617C57.9376 94.0424 56.9287 94.594 56.8682 93.2151C65.2554 92.5964 74.4162 87.108 75.8556 75.3442L76.5282 75.7545C75.5126 80.9335 75.7547 86.173 75.8556 91.4059C75.5033 91.9507 75.3358 92.5946 75.378 93.2421ZM71.968 87.2425C71.5241 87.2425 67.966 90.5046 67.9862 90.8745C67.9862 91.4395 70.7573 94.3249 71.2886 94.3518C71.82 94.3787 75.0014 91.6614 74.961 91.1705C74.887 90.5248 72.3715 87.229 71.968 87.2425ZM74.961 88.5541C74.887 86.5699 75.1157 84.9153 74.6987 83.0791C72.5666 86.4152 72.5666 86.4152 74.9341 88.5541H74.961Z" fill="#404A53"/>
<path d="M61.7312 105.12C44.6068 105.423 27.4825 105.827 10.3582 105.632C8.7507 105.632 6.82707 105.692 6.36298 103.405C9.44347 105.423 12.8872 104.683 16.2165 104.75C30.5428 104.925 44.8624 104.468 59.182 104.32C60.0295 104.32 60.877 104.354 61.7312 104.367V105.12Z" fill="#404A53"/>
<path d="M75.8557 75.3313C74.4163 87.095 65.2555 92.5834 56.8682 93.2022C52.8454 93.4155 48.8504 92.4233 45.3947 90.3528C41.939 88.2823 39.1799 85.2275 37.4705 81.5797C34.1815 74.43 35.6949 65.6391 41.1362 60.3054C47.2232 54.2722 56.5319 52.463 63.8969 55.9336C72.0151 59.7943 75.9229 66.3454 75.8557 75.3313ZM40.6519 65.4844V65.5248C37.6656 71.2957 37.5311 77.1809 41.0286 82.7298C44.5799 88.3729 50.0145 90.6934 56.6328 90.2696C60.5641 90.1485 64.3192 88.6108 67.2064 85.9399C70.0936 83.269 71.9184 79.6448 72.3447 75.7348C73.1854 69.1568 71.3762 63.5406 65.6994 59.8212C59.0676 55.4762 52.2475 55.9336 45.5215 59.8884C43.5643 61.469 41.7012 63.1438 40.6519 65.4844Z" fill="#F4F5F6"/>
<path d="M75.8557 75.3312C75.9229 66.3655 72.0151 59.8144 63.8834 55.9537C56.5319 52.4629 47.2232 54.2722 41.1093 60.2785C35.668 65.6122 34.1546 74.403 37.4436 81.5527C39.153 85.2006 41.9121 88.2553 45.3678 90.3258C48.8235 92.3963 52.8185 93.3885 56.8413 93.1752C56.8901 93.2733 56.9263 93.3773 56.9489 93.4846C56.9489 93.5317 56.8951 93.5922 56.8682 93.6393L56.1956 93.9823C48.5684 94.3455 42.7841 91.0094 38.2978 85.0569L37.4302 83.6108C35.0626 80.1335 34.7398 76.2123 34.7869 72.1767C34.7869 71.5041 35.3788 70.5288 34.0336 70.4414V69.7688C34.4977 69.7688 35.0357 69.91 35.1837 69.2173C35.5009 67.7206 35.951 66.2552 36.5289 64.8387C36.7845 64.1661 36.0917 64.3409 35.742 64.2401V63.4867C36.1437 63.6015 36.5724 63.5769 36.9583 63.4169C37.3443 63.2569 37.6647 62.971 37.8674 62.6056C38.6854 61.4408 39.5845 60.3351 40.5578 59.2965C41.2304 58.5163 41.2304 58.523 39.9861 57.6957C44.1696 57.5074 47.082 54.4807 50.9023 53.761C59.5586 52.1737 66.7083 54.5479 72.3582 61.321C73.172 62.2962 73.8648 63.3388 75.0485 64.9597V50.1626H75.7951C75.7951 52.5638 75.7951 54.9649 75.8557 57.3661C75.9162 62.2962 75.4454 67.2466 76.6291 72.1632C76.9049 73.2798 76.6291 74.5442 76.5686 75.7415L75.8557 75.3312Z" fill="#465058"/>
<path d="M31.0877 38.614C31.0877 40.4233 31.0877 42.3335 31.0877 44.2437C31.0877 45.3938 30.7312 46.174 29.4062 46.1673C25.6531 46.1673 21.9 46.1269 18.1469 46.1673C16.7142 46.1673 16.1291 45.4947 16.1291 44.0957C16.1291 40.6991 16.1627 37.3025 16.1291 33.9058C16.1291 32.4665 16.8017 32.0427 18.0796 32.0831C20.77 32.1571 23.4604 32.258 26.1508 32.2378C27.5767 32.2378 29.0497 32.5337 30.3949 31.4778C31.0675 30.933 31.545 31.6056 31.3701 32.3992C30.8791 34.417 31.3163 36.4684 31.0877 38.614ZM29.3927 32.87C25.6777 32.7636 21.9597 32.8556 18.2545 33.1458C17.5819 33.2131 17.0371 33.1996 17.0505 34.148C17.1111 37.511 17.0909 40.8201 17.1313 44.1562C17.1313 44.7952 17.2052 45.5014 18.1671 45.3871C21.752 45.0239 25.3638 45.609 28.9286 45.0575C29.7626 44.9297 30.2133 44.8423 30.1998 43.8737C30.1595 40.652 30.1998 37.4302 30.1998 34.2085C28.3464 36.5456 26.6714 39.0188 25.189 41.6071C24.5164 42.69 24.0119 42.9523 23.1712 41.8358C22.3304 40.7192 21.483 39.5489 20.6422 38.4122C20.3126 37.975 20.1378 37.4504 20.6422 37.067C21.1467 36.6837 21.4023 37.2352 21.6847 37.5311C22.4784 38.3786 23.2586 39.2463 24.1599 40.2215C25.7162 37.6426 27.4655 35.185 29.3927 32.87Z" fill="#404A53"/>
<path d="M6.35623 103.398C5.05812 102.726 5.48858 101.508 5.48858 100.513C5.41684 75.9497 5.36079 51.3887 5.32043 26.8299C5.32043 23.9176 5.32043 21.0052 5.38769 18.0862C5.38769 17.3732 5.0514 16.2634 6.36296 16.0684C5.78453 30.4821 6.36296 44.8891 6.30243 59.3029C6.25534 73.071 6.37641 86.8323 6.34951 100.6C6.34951 101.562 7.06246 102.484 6.35623 103.398Z" fill="#404A53"/>
<path d="M16.6805 27.4487H64.1927V27.8994H16.6536L16.6805 27.4487Z" fill="#465058"/>
<path d="M37.4368 83.6108L38.3381 85.0569C36.0984 84.5525 33.8384 84.9964 31.6121 84.956C27.3008 84.8686 22.9827 84.956 18.6647 84.9022C17.945 84.9022 17.1379 85.0973 16.472 84.4785C17.1446 83.6243 17.9921 83.9606 18.705 83.9606C24.2943 83.9606 29.8903 83.9606 35.4796 83.9606C36.1185 84.0009 36.8517 84.1691 37.4368 83.6108Z" fill="#404A53"/>
<path d="M35.6479 92.4078C29.2515 92.697 22.8685 92.5356 16.4654 92.4078V91.8159H35.6479C35.6479 92.0177 35.6479 92.2128 35.6479 92.4078Z" fill="#404A53"/>
<path d="M37.9951 39.1987H64.186V39.6426H38.022L37.9951 39.1987Z" fill="#465058"/>
<path d="M64.1996 45.4273H37.8002C39.0108 44.3915 62.128 44.2503 64.1996 45.4273Z" fill="#404A53"/>
<path d="M24.3616 58.045C30.4276 58.045 35.3451 57.9125 35.3451 57.7491C35.3451 57.5856 30.4276 57.4531 24.3616 57.4531C18.2956 57.4531 13.3781 57.5856 13.3781 57.7491C13.3781 57.9125 18.2956 58.045 24.3616 58.045Z" fill="#465058"/>
<path d="M35.742 63.4865V64.2196H18.2545V63.4663L35.742 63.4865Z" fill="#404A53"/>
<path d="M16.5999 75.876H30.9396V76.3266H16.6133L16.5999 75.876Z" fill="#465058"/>
<path d="M34.0403 69.7482V70.4208C28.6595 70.6495 23.2787 70.4746 17.8979 70.3603V69.7281C23.2585 69.5666 28.6461 69.5599 34.0403 69.7482Z" fill="#404A53"/>
<path d="M64.2332 33.5693C62.4777 34.2419 39.8112 34.289 37.9346 33.5693H64.2332Z" fill="#404A53"/>
<path d="M75.136 42.5148V32.668H75.5866V42.5551L75.136 42.5148Z" fill="#404A53"/>
<path d="M75.7749 50.1689H75.0283V45.8643H75.7749V50.1689Z" fill="#404A53"/>
<path d="M15.5035 13.9365H17.6424C18.0997 15.3355 16.9698 14.7773 16.4653 14.8109C15.9609 14.8445 14.9991 15.1203 15.5035 13.9365Z" fill="#404A53"/>
<path d="M18.2813 63.4666V64.2266C17.6719 64.3862 17.0247 64.3068 16.472 64.0047C16.9428 63.0899 17.6625 63.4531 18.2813 63.4666Z" fill="#465058"/>
<path d="M7.64081 14.7971C8.31341 13.6268 9.44337 14.0707 10.4119 13.916C9.95454 15.6984 8.63625 14.7971 7.64081 14.7971Z" fill="#404A53"/>
<path d="M17.8643 69.7282V70.3605C17.3598 70.4344 16.5998 70.7237 16.6267 69.9434C16.6401 69.4188 17.4069 69.6744 17.8643 69.7282Z" fill="#465058"/>
<path d="M6.36955 16.0953C5.81802 15.7388 6.2014 15.4227 6.45026 15.1806C6.69912 14.9384 6.99506 14.8644 7.2103 15.2546C7.31791 15.9271 7.16994 16.3374 6.36955 16.0953Z" fill="#404A53"/>
<path d="M7.22388 15.2346L7.19025 14.7974L7.63416 14.831C7.63416 14.9991 7.63416 15.1673 7.58035 15.3354L7.22388 15.2346Z" fill="#404A53"/>
<path d="M56.2023 93.9822L56.8749 93.6392C56.8548 94.1638 56.4983 94.0629 56.2023 93.9822Z" fill="#404A53"/>
<path d="M71.968 87.2427C72.3984 87.2427 74.9139 90.5249 74.961 91.1706C75.0014 91.6751 71.8805 94.3722 71.2886 94.352C70.6968 94.3318 68.0198 91.4397 67.9862 90.8747C67.9324 90.5048 71.4972 87.2561 71.968 87.2427Z" fill="#F4F5F6"/>
<path d="M74.9342 88.554C72.5667 86.4152 72.5667 86.4152 74.6719 83.0791C75.0889 84.9153 74.8602 86.5699 74.9342 88.554Z" fill="#F4F5F6"/>
<path d="M45.5013 59.8611C52.2273 55.9062 59.0542 55.4489 65.6793 59.7938C71.356 63.5133 73.1653 69.1295 72.3245 75.7075H71.5779C71.5779 75.351 71.5779 75.0349 71.6317 74.6515C72.0204 71.0358 71.0935 67.4011 69.0208 64.4131C66.9481 61.4251 63.8683 59.2838 60.3456 58.3814C55.2876 57.0362 50.5996 58.1931 46.0663 60.3992L45.5013 59.8611Z" fill="#404A53"/>
<path d="M56.6195 90.2559C50.0011 90.6797 44.5665 88.3592 41.0152 82.7161C37.5312 77.1806 37.6522 71.3223 40.6385 65.5312L41.2035 66.2442C40.9076 67.0379 40.5915 67.8248 40.3292 68.6252C39.2565 71.6838 39.1565 74.9993 40.0428 78.117C40.9291 81.2347 42.7583 84.0018 45.2795 86.0387C48.5886 88.6484 52.483 89.4959 56.6195 89.4892V90.2559Z" fill="#404A53"/>
<path d="M56.6194 90.2556V89.4889C64.7982 88.3724 69.809 83.8054 71.5847 75.7275H72.3313C71.9034 79.6363 70.0779 83.2589 67.1909 85.9284C64.3039 88.598 60.5496 90.1347 56.6194 90.2556Z" fill="#465058"/>
<path d="M45.5014 59.8613L46.0664 60.4129C44.4925 62.0876 42.7034 63.5808 41.5196 65.5717L40.652 65.4708C41.7012 63.1436 43.5643 61.4688 45.5014 59.8613Z" fill="#465058"/>
<path d="M40.6519 65.4839L41.5196 65.5848L41.2035 66.2574L40.6385 65.5444L40.6519 65.4839Z" fill="#404A53"/>
<path d="M29.3926 32.8698C27.4634 35.1999 25.7141 37.6732 24.1598 40.2684C23.2585 39.2864 22.4783 38.4187 21.6846 37.578C21.4021 37.282 21.0793 36.7843 20.6421 37.1139C20.2049 37.4435 20.3394 38.0017 20.6421 38.4591C21.4828 39.5958 22.3438 40.7325 23.1711 41.8826C23.9984 43.0327 24.5163 42.7368 25.1889 41.6539C26.6713 39.0656 28.3463 36.5924 30.1997 34.2553C30.1997 37.4771 30.1997 40.6988 30.1997 43.9206C30.267 44.842 29.7827 44.9295 28.9218 45.064C25.3368 45.6155 21.725 45.064 18.1602 45.3935C17.1984 45.4944 17.1311 44.8017 17.1244 44.1627C17.0841 40.7997 17.1244 37.4905 17.0437 34.1545C17.0437 33.2061 17.5481 33.2195 18.2476 33.1523C21.9549 32.8596 25.6752 32.7653 29.3926 32.8698Z" fill="#F4F5F6"/>
<path d="M41.2034 66.2442L41.5196 65.5716C42.7235 63.5538 44.4924 62.0875 46.0663 60.4127C50.5996 58.1797 55.2876 57.0498 60.3455 58.395C63.8683 59.2959 66.9486 61.4356 69.0225 64.4223C71.0964 67.409 72.0251 71.0428 71.6385 74.6584C71.6048 75.0081 71.6048 75.3309 71.5846 75.7143C69.809 83.7855 64.7981 88.3592 56.6194 89.4757C52.4829 89.4757 48.5886 88.6349 45.2794 86.0252C42.7615 83.9845 40.9367 81.2147 40.0553 78.0958C39.1738 74.977 39.2788 71.6618 40.356 68.605C40.5914 67.8248 40.9075 67.0378 41.2034 66.2442ZM54.7361 80.4292C55.3882 80.2212 55.9412 79.7807 56.2898 79.1917C59.0205 76.0372 61.7513 72.876 64.4484 69.6879C64.9259 69.1296 66.0761 68.5983 65.0403 67.6701C64.0045 66.7419 63.5135 67.9526 63.0628 68.457C60.7132 71.1026 58.4219 73.7929 56.1889 76.5282C55.2136 77.7321 54.4872 78.1021 53.3505 76.6761C52.4161 75.613 51.3922 74.6319 50.2902 73.7436C49.7992 73.3064 49.2611 72.5464 48.528 73.3939C47.9361 74.0665 48.528 74.5575 48.9719 75.0014C50.5682 76.6066 52.1735 78.2029 53.7877 79.7903C54.085 80.03 54.4023 80.2438 54.7361 80.4292Z" fill="#FAFBFB"/>
<path d="M54.736 80.4292C54.401 80.233 54.0836 80.008 53.7877 79.7566C52.169 78.1782 50.5637 76.582 48.9719 74.9677C48.528 74.5238 47.9361 74.0463 48.528 73.3602C49.2611 72.5127 49.7992 73.2728 50.2902 73.71C51.3936 74.6089 52.4175 75.6013 53.3505 76.6761C54.4872 78.102 55.2136 77.7321 56.1888 76.5281C58.4308 73.7839 60.7222 71.0936 63.0628 68.457C63.5134 67.9525 63.9775 66.6948 65.0402 67.67C66.1029 68.6453 64.9259 69.1565 64.4483 69.6878C61.758 72.8759 59.0205 76.0371 56.2897 79.1916C55.9411 79.7807 55.3882 80.2211 54.736 80.4292Z" fill="#404A53"/>
</svg>
